Palanquin Medium.ufo
<glyph name="uni02C9" format="1">
  <advance width="282"/>
  <unicode hex="02C9"/>
  <outline>
    <contour>
      <point x="16" y="702" type="line"/>
      <point x="16" y="626" type="line"/>
      <point x="267" y="626" type="line"/>
      <point x="267" y="702" type="line"/>
    </contour>
  </outline>
</glyph>
<glyph name="emdash" format="1">
  <advance width="512"/>
  <unicode hex="2014"/>
  <outline>
    <contour>
      <point x="497" y="235" type="line"/>
      <point x="489" y="311" type="line"/>
      <point x="16" y="311" type="line"/>
      <point x="25" y="235" type="line"/>
    </contour>
  </outline>
</glyph>
<glyph name="minus" format="1">
  <advance width="449"/>
  <unicode hex="2212"/>
  <outline>
    <contour>
      <point x="434" y="235" type="line"/>
      <point x="423" y="311" type="line"/>
      <point x="16" y="311" type="line"/>
      <point x="24" y="235" type="line"/>
    </contour>
  </outline>
</glyph>
<glyph name="dv_BhHa" format="1">
  <advance width="971"/>
  <outline>
    <contour>
      <point x="889" y="338" type="line"/>
      <point x="832" y="357"/>
      <point x="777" y="361"/>
      <point x="723" y="361" type="curve" smooth="yes"/>
      <point x="702" y="361"/>
      <point x="688" y="359"/>
      <point x="664" y="359" type="curve" smooth="yes"/>
      <point x="629" y="359"/>
      <point x="603" y="383"/>
      <point x="603" y="407" type="curve" smooth="yes"/>
      <point x="603" y="435"/>
      <point x="633" y="456"/>
      <point x="667" y="456" type="curve" smooth="yes"/>
      <point x="875" y="456" type="line"/>
      <point x="875" y="597" type="line"/>
      <point x="982" y="597" type="line"/>
      <point x="977" y="625"/>
      <point x="972" y="652"/>
      <point x="966" y="680" type="curve"/>
      <point x="410" y="680" type="line"/>
      <point x="416" y="652"/>
      <point x="420" y="625"/>
      <point x="425" y="597" type="curve"/>
      <point x="765" y="597" type="line"/>
      <point x="765" y="540" type="line"/>
      <point x="660" y="540" type="line" smooth="yes"/>
      <point x="573" y="540"/>
      <point x="503" y="488"/>
      <point x="503" y="407" type="curve" smooth="yes"/>
      <point x="503" y="376"/>
      <point x="517" y="345"/>
      <point x="545" y="322" type="curve"/>
      <point x="311" y="322" type="line"/>
      <point x="311" y="527" type="line" smooth="yes"/>
      <point x="311" y="630"/>
      <point x="257" y="696"/>
      <point x="167" y="696" type="curve" smooth="yes"/>
      <point x="101" y="696"/>
      <point x="39" y="649"/>
      <point x="39" y="581" type="curve" smooth="yes"/>
      <point x="39" y="510"/>
      <point x="89" y="460"/>
      <point x="164" y="460" type="curve" smooth="yes"/>
      <point x="176" y="460"/>
      <point x="194" y="462"/>
      <point x="209" y="470" type="curve"/>
      <point x="209" y="322" type="line"/>
      <point x="171" y="322"/>
      <point x="139" y="315"/>
      <point x="139" y="276" type="curve" smooth="yes"/>
      <point x="139" y="216"/>
      <point x="202" y="160"/>
      <point x="268" y="160" type="curve" smooth="yes"/>
      <point x="285" y="160"/>
      <point x="312" y="184"/>
      <point x="312" y="241" type="curve"/>
      <point x="498" y="241" type="line"/>
      <point x="489" y="220"/>
      <point x="484" y="196"/>
      <point x="484" y="171" type="curve" smooth="yes"/>
      <point x="484" y="51"/>
      <point x="576" y="-18"/>
      <point x="734" y="-18" type="curve" smooth="yes"/>
      <point x="790" y="-18"/>
      <point x="838" y="-13"/>
      <point x="889" y="4" type="curve"/>
      <point x="882" y="32"/>
      <point x="873" y="61"/>
      <point x="866" y="90" type="curve"/>
      <point x="822" y="77"/>
      <point x="781" y="71"/>
      <point x="736" y="71" type="curve" smooth="yes"/>
      <point x="647" y="71"/>
      <point x="593" y="113"/>
      <point x="593" y="169" type="curve" smooth="yes"/>
      <point x="593" y="229"/>
      <point x="639" y="276"/>
      <point x="728" y="276" type="curve" smooth="yes"/>
      <point x="775" y="276"/>
      <point x="821" y="266"/>
      <point x="866" y="252" type="curve"/>
    </contour>
    <contour>
      <point x="170" y="538" type="curve" smooth="yes"/>
      <point x="150" y="538"/>
      <point x="133" y="552"/>
      <point x="133" y="574" type="curve" smooth="yes"/>
      <point x="133" y="597"/>
      <point x="148" y="611"/>
      <point x="168" y="611" type="curve" smooth="yes"/>
      <point x="194" y="611"/>
      <point x="208" y="589"/>
      <point x="209" y="555" type="curve"/>
      <point x="198" y="545"/>
      <point x="183" y="538"/>
    </contour>
  </outline>
</glyph>
<glyph name="dv_CHa" format="1">
  <advance width="936"/>
  <outline>
    <contour>
      <point x="854" y="338" type="line"/>
      <point x="797" y="357"/>
      <point x="742" y="361"/>
      <point x="688" y="361" type="curve" smooth="yes"/>
      <point x="667" y="361"/>
      <point x="653" y="359"/>
      <point x="629" y="359" type="curve" smooth="yes"/>
      <point x="594" y="359"/>
      <point x="568" y="383"/>
      <point x="568" y="407" type="curve" smooth="yes"/>
      <point x="568" y="435"/>
      <point x="598" y="456"/>
      <point x="632" y="456" type="curve" smooth="yes"/>
      <point x="840" y="456" type="line"/>
      <point x="840" y="597" type="line"/>
      <point x="947" y="597" type="line"/>
      <point x="942" y="625"/>
      <point x="937" y="652"/>
      <point x="931" y="680" type="curve"/>
      <point x="-11" y="680" type="line"/>
      <point x="-5" y="652"/>
      <point x="-1" y="625"/>
      <point x="4" y="597" type="curve"/>
      <point x="730" y="597" type="line"/>
      <point x="730" y="540" type="line"/>
      <point x="625" y="540" type="line" smooth="yes"/>
      <point x="538" y="540"/>
      <point x="468" y="488"/>
      <point x="468" y="407" type="curve" smooth="yes"/>
      <point x="468" y="372"/>
      <point x="487" y="336"/>
      <point x="524" y="312" type="curve"/>
      <point x="482" y="281"/>
      <point x="456" y="242"/>
      <point x="450" y="194" type="curve"/>
      <point x="427" y="180"/>
      <point x="398" y="172"/>
      <point x="365" y="172" type="curve" smooth="yes"/>
      <point x="290" y="172"/>
      <point x="235" y="214"/>
      <point x="235" y="281" type="curve" smooth="yes"/>
      <point x="235" y="344"/>
      <point x="281" y="390"/>
      <point x="375" y="390" type="curve" smooth="yes"/>
      <point x="418" y="390" type="line"/>
      <point x="412" y="418"/>
      <point x="406" y="446"/>
      <point x="401" y="474" type="curve"/>
      <point x="37" y="474" type="line"/>
      <point x="52" y="390" type="line"/>
      <point x="176" y="390" type="line"/>
      <point x="152" y="361"/>
      <point x="137" y="326"/>
      <point x="137" y="281" type="curve" smooth="yes"/>
      <point x="137" y="153"/>
      <point x="239" y="86"/>
      <point x="365" y="86" type="curve" smooth="yes"/>
      <point x="397" y="86"/>
      <point x="432" y="91"/>
      <point x="461" y="101" type="curve"/>
      <point x="491" y="24"/>
      <point x="575" y="-18"/>
      <point x="699" y="-18" type="curve" smooth="yes"/>
      <point x="755" y="-18"/>
      <point x="803" y="-13"/>
      <point x="854" y="4" type="curve"/>
      <point x="847" y="32"/>
      <point x="838" y="61"/>
      <point x="831" y="90" type="curve"/>
      <point x="787" y="77"/>
      <point x="746" y="71"/>
      <point x="701" y="71" type="curve" smooth="yes"/>
      <point x="612" y="71"/>
      <point x="558" y="113"/>
      <point x="558" y="169" type="curve" smooth="yes"/>
      <point x="558" y="229"/>
      <point x="604" y="276"/>
      <point x="693" y="276" type="curve" smooth="yes"/>
      <point x="740" y="276"/>
      <point x="786" y="266"/>
      <point x="831" y="252" type="curve"/>
    </contour>
  </outline>
</glyph>
<glyph name="dv_DhHa" format="1">
  <advance width="938"/>
  <outline>
    <contour>
      <point x="856" y="338" type="line"/>
      <point x="799" y="357"/>
      <point x="744" y="361"/>
      <point x="690" y="361" type="curve" smooth="yes"/>
      <point x="669" y="361"/>
      <point x="655" y="359"/>
      <point x="631" y="359" type="curve" smooth="yes"/>
      <point x="596" y="359"/>
      <point x="570" y="383"/>
      <point x="570" y="407" type="curve" smooth="yes"/>
      <point x="570" y="435"/>
      <point x="600" y="456"/>
      <point x="634" y="456" type="curve" smooth="yes"/>
      <point x="842" y="456" type="line"/>
      <point x="842" y="597" type="line"/>
      <point x="949" y="597" type="line"/>
      <point x="944" y="625"/>
      <point x="939" y="652"/>
      <point x="933" y="680" type="curve"/>
      <point x="430" y="680" type="line"/>
      <point x="436" y="652"/>
      <point x="440" y="625"/>
      <point x="445" y="597" type="curve"/>
      <point x="732" y="597" type="line"/>
      <point x="732" y="540" type="line"/>
      <point x="627" y="540" type="line" smooth="yes"/>
      <point x="540" y="540"/>
      <point x="470" y="488"/>
      <point x="470" y="407" type="curve" smooth="yes"/>
      <point x="470" y="372"/>
      <point x="489" y="336"/>
      <point x="526" y="312" type="curve"/>
      <point x="499" y="292"/>
      <point x="478" y="269"/>
      <point x="466" y="241" type="curve"/>
      <point x="422" y="186"/>
      <point x="365" y="164"/>
      <point x="300" y="164" type="curve" smooth="yes"/>
      <point x="225" y="164"/>
      <point x="175" y="206"/>
      <point x="175" y="259" type="curve" smooth="yes"/>
      <point x="175" y="314"/>
      <point x="210" y="362"/>
      <point x="302" y="362" type="curve" smooth="yes"/>
      <point x="358" y="362" type="line"/>
      <point x="338" y="440" type="line"/>
      <point x="296" y="440" type="line" smooth="yes"/>
      <point x="221" y="440"/>
      <point x="182" y="478"/>
      <point x="182" y="529" type="curve" smooth="yes"/>
      <point x="182" y="573"/>
      <point x="232" y="604"/>
      <point x="262" y="604" type="curve" smooth="yes"/>
      <point x="296" y="604"/>
      <point x="321" y="595"/>
      <point x="343" y="574" type="curve"/>
      <point x="391" y="640" type="line"/>
      <point x="370" y="664"/>
      <point x="323" y="694"/>
      <point x="259" y="694" type="curve" smooth="yes"/>
      <point x="150" y="694"/>
      <point x="80" y="618"/>
      <point x="80" y="532" type="curve" smooth="yes"/>
      <point x="80" y="478"/>
      <point x="106" y="427"/>
      <point x="147" y="404" type="curve"/>
      <point x="97" y="381"/>
      <point x="69" y="321"/>
      <point x="69" y="258" type="curve" smooth="yes"/>
      <point x="69" y="153"/>
      <point x="149" y="72"/>
      <point x="294" y="72" type="curve" smooth="yes"/>
      <point x="356" y="72"/>
      <point x="412" y="89"/>
      <point x="458" y="117" type="curve"/>
      <point x="482" y="30"/>
      <point x="568" y="-18"/>
      <point x="701" y="-18" type="curve" smooth="yes"/>
      <point x="757" y="-18"/>
      <point x="805" y="-13"/>
      <point x="856" y="4" type="curve"/>
      <point x="849" y="32"/>
      <point x="840" y="61"/>
      <point x="833" y="90" type="curve"/>
      <point x="789" y="77"/>
      <point x="748" y="71"/>
      <point x="703" y="71" type="curve" smooth="yes"/>
      <point x="614" y="71"/>
      <point x="560" y="113"/>
      <point x="560" y="169" type="curve" smooth="yes"/>
      <point x="560" y="229"/>
      <point x="606" y="276"/>
      <point x="695" y="276" type="curve" smooth="yes"/>
      <point x="742" y="276"/>
      <point x="788" y="266"/>
      <point x="833" y="252" type="curve"/>
    </contour>
  </outline>
</glyph>
<glyph name="dv_GRYa" format="1">
  <advance width="980"/>
  <outline>
    <contour>
      <point x="484" y="504" type="curve" smooth="yes"/>
      <point x="484" y="439"/>
      <point x="444" y="391"/>
      <point x="413" y="382" type="curve"/>
      <point x="395" y="361" type="line"/>
      <point x="395" y="259"/>
      <point x="495" y="189"/>
      <point x="603" y="168" type="curve"/>
      <point x="538" y="118"/>
      <point x="471" y="70"/>
      <point x="406" y="20" type="curve"/>
      <point x="429" y="0"/>
      <point x="453" y="-19"/>
      <point x="477" y="-39" type="curve"/>
      <point x="572" y="37"/>
      <point x="669" y="112"/>
      <point x="764" y="188" type="curve"/>
      <point x="764" y="0" type="line"/>
      <point x="870" y="-16" type="line"/>
      <point x="870" y="597" type="line"/>
      <point x="991" y="597" type="line"/>
      <point x="986" y="625"/>
      <point x="981" y="652"/>
      <point x="975" y="680" type="curve"/>
      <point x="-11" y="680" type="line"/>
      <point x="-5" y="652"/>
      <point x="-1" y="625"/>
      <point x="4" y="597" type="curve"/>
      <point x="125" y="597" type="line"/>
      <point x="125" y="327" type="line"/>
      <point x="89" y="327"/>
      <point x="57" y="316"/>
      <point x="57" y="283" type="curve" smooth="yes"/>
      <point x="57" y="231"/>
      <point x="120" y="160"/>
      <point x="187" y="160" type="curve" smooth="yes"/>
      <point x="216" y="160"/>
      <point x="230" y="183"/>
      <point x="230" y="219" type="curve" smooth="yes"/>
      <point x="230" y="597" type="line"/>
      <point x="420" y="597" type="line"/>
      <point x="458" y="584"/>
      <point x="484" y="549"/>
    </contour>
    <contour>
      <point x="764" y="597" type="line"/>
      <point x="764" y="372" type="line"/>
      <point x="760" y="297"/>
      <point x="706" y="252"/>
      <point x="630" y="252" type="curve"/>
      <point x="558" y="254"/>
      <point x="511" y="297"/>
      <point x="495" y="339" type="curve"/>
      <point x="553" y="373"/>
      <point x="579" y="439"/>
      <point x="579" y="498" type="curve" smooth="yes"/>
      <point x="579" y="540"/>
      <point x="566" y="576"/>
      <point x="548" y="597" type="curve"/>
    </contour>
  </outline>
</glyph>
<glyph name="dv_GhHa" format="1">
  <advance width="927"/>
  <outline>
    <contour>
      <point x="846" y="338" type="line"/>
      <point x="789" y="357"/>
      <point x="734" y="361"/>
      <point x="679" y="361" type="curve" smooth="yes"/>
      <point x="659" y="361"/>
      <point x="644" y="359"/>
      <point x="621" y="359" type="curve" smooth="yes"/>
      <point x="585" y="359"/>
      <point x="559" y="379"/>
      <point x="559" y="407" type="curve" smooth="yes"/>
      <point x="559" y="435"/>
      <point x="587" y="456"/>
      <point x="624" y="456" type="curve" smooth="yes"/>
      <point x="831" y="456" type="line"/>
      <point x="831" y="597" type="line"/>
      <point x="939" y="597" type="line"/>
      <point x="933" y="625"/>
      <point x="928" y="652"/>
      <point x="923" y="680" type="curve"/>
      <point x="-11" y="680" type="line"/>
      <point x="-5" y="652"/>
      <point x="-1" y="625"/>
      <point x="4" y="597" type="curve"/>
      <point x="102" y="597" type="line"/>
      <point x="89" y="578"/>
      <point x="80" y="553"/>
      <point x="80" y="532" type="curve" smooth="yes"/>
      <point x="80" y="478"/>
      <point x="106" y="427"/>
      <point x="147" y="404" type="curve"/>
      <point x="97" y="381"/>
      <point x="69" y="321"/>
      <point x="69" y="258" type="curve" smooth="yes"/>
      <point x="69" y="153"/>
      <point x="149" y="72"/>
      <point x="294" y="72" type="curve" smooth="yes"/>
      <point x="352" y="72"/>
      <point x="406" y="87"/>
      <point x="451" y="113" type="curve"/>
      <point x="474" y="28"/>
      <point x="562" y="-18"/>
      <point x="690" y="-18" type="curve" smooth="yes"/>
      <point x="748" y="-18"/>
      <point x="797" y="-13"/>
      <point x="846" y="4" type="curve"/>
      <point x="822" y="90" type="line"/>
      <point x="779" y="77"/>
      <point x="738" y="71"/>
      <point x="692" y="71" type="curve" smooth="yes"/>
      <point x="593" y="71"/>
      <point x="549" y="118"/>
      <point x="549" y="175" type="curve" smooth="yes"/>
      <point x="549" y="234"/>
      <point x="597" y="276"/>
      <point x="684" y="276" type="curve" smooth="yes"/>
      <point x="732" y="276"/>
      <point x="778" y="266"/>
      <point x="822" y="252" type="curve"/>
    </contour>
    <contour>
      <point x="300" y="164" type="curve" smooth="yes"/>
      <point x="225" y="164"/>
      <point x="175" y="206"/>
      <point x="175" y="259" type="curve" smooth="yes"/>
      <point x="175" y="313"/>
      <point x="213" y="362"/>
      <point x="302" y="362" type="curve" smooth="yes"/>
      <point x="358" y="362" type="line"/>
      <point x="338" y="440" type="line"/>
      <point x="296" y="440" type="line" smooth="yes"/>
      <point x="218" y="440"/>
      <point x="183" y="479"/>
      <point x="183" y="532" type="curve" smooth="yes"/>
      <point x="183" y="558"/>
      <point x="197" y="585"/>
      <point x="224" y="597" type="curve"/>
      <point x="721" y="597" type="line"/>
      <point x="721" y="540" type="line"/>
      <point x="641" y="540" type="line" smooth="yes"/>
      <point x="542" y="540"/>
      <point x="458" y="502"/>
      <point x="458" y="408" type="curve" smooth="yes"/>
      <point x="458" y="370"/>
      <point x="478" y="336"/>
      <point x="515" y="312" type="curve"/>
      <point x="483" y="288"/>
      <point x="460" y="260"/>
      <point x="449" y="227" type="curve"/>
      <point x="409" y="182"/>
      <point x="359" y="164"/>
    </contour>
  </outline>
</glyph>
<glyph name="dv_HLa" format="1">
  <advance width="1291"/>
  <outline>
    <contour>
      <point x="1075" y="0" type="line"/>
      <point x="1180" y="-16" type="line"/>
      <point x="1180" y="597" type="line"/>
      <point x="1302" y="597" type="line"/>
      <point x="1296" y="625"/>
      <point x="1291" y="652"/>
      <point x="1286" y="680" type="curve"/>
      <point x="-11" y="680" type="line"/>
      <point x="-5" y="652"/>
      <point x="-1" y="625"/>
      <point x="4" y="597" type="curve"/>
      <point x="344" y="597" type="line"/>
      <point x="344" y="540" type="line"/>
      <point x="239" y="540" type="line" smooth="yes"/>
      <point x="155" y="540"/>
      <point x="80" y="491"/>
      <point x="80" y="413" type="curve" smooth="yes"/>
      <point x="80" y="375"/>
      <point x="101" y="336"/>
      <point x="138" y="312" type="curve"/>
      <point x="90" y="277"/>
      <point x="63" y="229"/>
      <point x="63" y="171" type="curve" smooth="yes"/>
      <point x="63" y="52"/>
      <point x="155" y="-18"/>
      <point x="313" y="-18" type="curve" smooth="yes"/>
      <point x="371" y="-18"/>
      <point x="417" y="-12"/>
      <point x="468" y="4" type="curve"/>
      <point x="461" y="32"/>
      <point x="452" y="61"/>
      <point x="445" y="90" type="curve"/>
      <point x="404" y="78"/>
      <point x="370" y="73"/>
      <point x="327" y="73" type="curve" smooth="yes"/>
      <point x="229" y="73"/>
      <point x="168" y="108"/>
      <point x="168" y="173" type="curve" smooth="yes"/>
      <point x="168" y="242"/>
      <point x="228" y="275"/>
      <point x="292" y="275" type="curve" smooth="yes"/>
      <point x="499" y="276" type="line"/>
      <point x="508" y="182"/>
      <point x="556" y="96"/>
      <point x="617" y="-21" type="curve"/>
      <point x="645" y="-11"/>
      <point x="673" y="-2"/>
      <point x="701" y="7" type="curve"/>
      <point x="633" y="144"/>
      <point x="594" y="215"/>
      <point x="594" y="297" type="curve" smooth="yes"/>
      <point x="594" y="351"/>
      <point x="630" y="404"/>
      <point x="698" y="404" type="curve" smooth="yes"/>
      <point x="756" y="404"/>
      <point x="794" y="342"/>
      <point x="794" y="272" type="curve" smooth="yes"/>
      <point x="794" y="160" type="line"/>
      <point x="891" y="144" type="line"/>
      <point x="891" y="275" type="line" smooth="yes"/>
      <point x="891" y="351"/>
      <point x="924" y="404"/>
      <point x="982" y="404" type="curve" smooth="yes"/>
      <point x="1049" y="404"/>
      <point x="1075" y="346"/>
      <point x="1075" y="263" type="curve" smooth="yes"/>
    </contour>
    <contour>
      <point x="243" y="359" type="curve" smooth="yes"/>
      <point x="208" y="359"/>
      <point x="182" y="379"/>
      <point x="182" y="407" type="curve" smooth="yes"/>
      <point x="182" y="435"/>
      <point x="209" y="456"/>
      <point x="246" y="456" type="curve" smooth="yes"/>
      <point x="454" y="456" type="line"/>
      <point x="454" y="597" type="line"/>
      <point x="1075" y="597" type="line"/>
      <point x="1075" y="464" type="line"/>
      <point x="1051" y="481"/>
      <point x="1017" y="491"/>
      <point x="983" y="491" type="curve" smooth="yes"/>
      <point x="925" y="491"/>
      <point x="873" y="468"/>
      <point x="840" y="425" type="curve"/>
      <point x="806" y="466"/>
      <point x="751" y="491"/>
      <point x="690" y="491" type="curve" smooth="yes"/>
      <point x="588" y="491"/>
      <point x="526" y="432"/>
      <point x="503" y="361" type="curve"/>
      <point x="302" y="361" type="line" smooth="yes"/>
      <point x="281" y="361"/>
      <point x="267" y="359"/>
    </contour>
  </outline>
</glyph>
<glyph name="dv_HLa.MAR" format="1">
  <advance width="1248"/>
  <outline>
    <contour>
      <point x="983" y="402" type="curve" smooth="yes"/>
      <point x="1040" y="402"/>
      <point x="1081" y="357"/>
      <point x="1081" y="308" type="curve" smooth="yes"/>
      <point x="1081" y="224"/>
      <point x="1046" y="158"/>
      <point x="973" y="7" type="curve"/>
      <point x="1001" y="-2"/>
      <point x="1028" y="-11"/>
      <point x="1056" y="-21" type="curve"/>
      <point x="1127" y="117"/>
      <point x="1177" y="207"/>
      <point x="1177" y="316" type="curve" smooth="yes"/>
      <point x="1177" y="391"/>
      <point x="1118" y="460"/>
      <point x="1038" y="482" type="curve"/>
      <point x="1038" y="597" type="line"/>
      <point x="1259" y="597" type="line"/>
      <point x="1243" y="680" type="line"/>
      <point x="-11" y="680" type="line"/>
      <point x="-5" y="652"/>
      <point x="-1" y="625"/>
      <point x="4" y="597" type="curve"/>
      <point x="344" y="597" type="line"/>
      <point x="344" y="540" type="line"/>
      <point x="239" y="540" type="line" smooth="yes"/>
      <point x="153" y="540"/>
      <point x="80" y="490"/>
      <point x="80" y="408" type="curve" smooth="yes"/>
      <point x="80" y="370"/>
      <point x="101" y="336"/>
      <point x="138" y="312" type="curve"/>
      <point x="90" y="277"/>
      <point x="63" y="229"/>
      <point x="63" y="171" type="curve" smooth="yes"/>
      <point x="63" y="52"/>
      <point x="155" y="-18"/>
      <point x="313" y="-18" type="curve" smooth="yes"/>
      <point x="369" y="-18"/>
      <point x="417" y="-13"/>
      <point x="468" y="4" type="curve"/>
      <point x="461" y="32"/>
      <point x="452" y="61"/>
      <point x="445" y="90" type="curve"/>
      <point x="403" y="78"/>
      <point x="367" y="73"/>
      <point x="322" y="73" type="curve" smooth="yes"/>
      <point x="226" y="73"/>
      <point x="168" y="107"/>
      <point x="168" y="173" type="curve" smooth="yes"/>
      <point x="168" y="241"/>
      <point x="236" y="276"/>
      <point x="332" y="276" type="curve" smooth="yes"/>
      <point x="499" y="276" type="line"/>
      <point x="508" y="182"/>
      <point x="556" y="96"/>
      <point x="617" y="-21" type="curve"/>
      <point x="645" y="-11"/>
      <point x="673" y="-2"/>
      <point x="701" y="7" type="curve"/>
      <point x="626" y="158"/>
      <point x="592" y="224"/>
      <point x="592" y="308" type="curve" smooth="yes"/>
      <point x="592" y="357"/>
      <point x="633" y="402"/>
      <point x="690" y="402" type="curve" smooth="yes"/>
      <point x="763" y="402"/>
      <point x="793" y="350"/>
      <point x="793" y="275" type="curve" smooth="yes"/>
      <point x="793" y="160" type="line"/>
      <point x="890" y="144" type="line"/>
      <point x="890" y="275" type="line" smooth="yes"/>
      <point x="890" y="351"/>
      <point x="924" y="402"/>
    </contour>
    <contour>
      <point x="243" y="359" type="curve" smooth="yes"/>
      <point x="208" y="359"/>
      <point x="182" y="383"/>
      <point x="182" y="407" type="curve" smooth="yes"/>
      <point x="182" y="435"/>
      <point x="212" y="456"/>
      <point x="246" y="456" type="curve" smooth="yes"/>
      <point x="454" y="456" type="line"/>
      <point x="454" y="597" type="line"/>
      <point x="933" y="597" type="line"/>
      <point x="933" y="485" type="line"/>
      <point x="894" y="476"/>
      <point x="862" y="456"/>
      <point x="840" y="425" type="curve"/>
      <point x="807" y="465"/>
      <point x="750" y="489"/>
      <point x="694" y="489" type="curve" smooth="yes"/>
      <point x="604" y="489"/>
      <point x="527" y="434"/>
      <point x="502" y="361" type="curve"/>
      <point x="302" y="361" type="line" smooth="yes"/>
      <point x="281" y="361"/>
      <point x="267" y="359"/>
    </contour>
  </outline>
</glyph>
<glyph name="dv_HMYa" format="1">
  <advance width="1487"/>
  <outline>
    <contour>
      <point x="552" y="276" type="line"/>
      <point x="553" y="219"/>
      <point x="615" y="160"/>
      <point x="680" y="160" type="curve" smooth="yes"/>
      <point x="704" y="160"/>
      <point x="723" y="190"/>
      <point x="723" y="241" type="curve"/>
      <point x="957" y="241" type="line"/>
      <point x="999" y="195"/>
      <point x="1064" y="164"/>
      <point x="1134" y="164" type="curve" smooth="yes"/>
      <point x="1197" y="164"/>
      <point x="1239" y="181"/>
      <point x="1272" y="204" type="curve"/>
      <point x="1272" y="0" type="line"/>
      <point x="1376" y="-16" type="line"/>
      <point x="1376" y="597" type="line"/>
      <point x="1498" y="597" type="line"/>
      <point x="1493" y="625"/>
      <point x="1488" y="652"/>
      <point x="1482" y="680" type="curve"/>
      <point x="-11" y="680" type="line"/>
      <point x="-5" y="652"/>
      <point x="-1" y="625"/>
      <point x="4" y="597" type="curve"/>
      <point x="344" y="597" type="line"/>
      <point x="344" y="540" type="line"/>
      <point x="239" y="540" type="line" smooth="yes"/>
      <point x="153" y="540"/>
      <point x="80" y="490"/>
      <point x="80" y="408" type="curve" smooth="yes"/>
      <point x="80" y="370"/>
      <point x="101" y="336"/>
      <point x="138" y="312" type="curve"/>
      <point x="90" y="277"/>
      <point x="63" y="229"/>
      <point x="63" y="171" type="curve" smooth="yes"/>
      <point x="63" y="53"/>
      <point x="156" y="-18"/>
      <point x="313" y="-18" type="curve" smooth="yes"/>
      <point x="369" y="-18"/>
      <point x="417" y="-13"/>
      <point x="468" y="4" type="curve"/>
      <point x="461" y="32"/>
      <point x="452" y="61"/>
      <point x="445" y="90" type="curve"/>
      <point x="402" y="76"/>
      <point x="353" y="71"/>
      <point x="309" y="71" type="curve" smooth="yes"/>
      <point x="223" y="71"/>
      <point x="168" y="111"/>
      <point x="168" y="173" type="curve" smooth="yes"/>
      <point x="168" y="234"/>
      <point x="224" y="276"/>
      <point x="307" y="276" type="curve" smooth="yes"/>
    </contour>
    <contour>
      <point x="1272" y="597" type="line"/>
      <point x="1272" y="372" type="line"/>
      <point x="1267" y="297"/>
      <point x="1212" y="252"/>
      <point x="1137" y="252" type="curve"/>
      <point x="1065" y="254"/>
      <point x="1018" y="297"/>
      <point x="1002" y="339" type="curve"/>
      <point x="1059" y="373"/>
      <point x="1087" y="439"/>
      <point x="1087" y="498" type="curve" smooth="yes"/>
      <point x="1087" y="540"/>
      <point x="1072" y="576"/>
      <point x="1056" y="597" type="curve"/>
    </contour>
    <contour>
      <point x="992" y="504" type="curve" smooth="yes"/>
      <point x="992" y="441"/>
      <point x="957" y="393"/>
      <point x="921" y="382" type="curve"/>
      <point x="902" y="361" type="line"/>
      <point x="902" y="348"/>
      <point x="904" y="335"/>
      <point x="907" y="322" type="curve"/>
      <point x="723" y="322" type="line"/>
      <point x="723" y="597" type="line"/>
      <point x="927" y="597" type="line"/>
      <point x="966" y="584"/>
      <point x="992" y="549"/>
    </contour>
    <contour>
      <point x="621" y="361" type="line"/>
      <point x="302" y="361" type="line" smooth="yes"/>
      <point x="281" y="361"/>
      <point x="267" y="359"/>
      <point x="243" y="359" type="curve" smooth="yes"/>
      <point x="208" y="359"/>
      <point x="182" y="379"/>
      <point x="182" y="407" type="curve" smooth="yes"/>
      <point x="182" y="435"/>
      <point x="209" y="456"/>
      <point x="246" y="456" type="curve" smooth="yes"/>
      <point x="454" y="456" type="line"/>
      <point x="454" y="597" type="line"/>
      <point x="621" y="597" type="line"/>
    </contour>
  </outline>
</glyph>
<glyph name="dv_HM.half" format="1">
  <advance width="649"/>
  <outline>
    <contour>
      <point x="766" y="290" type="line"/>
      <point x="766" y="371" type="line"/>
      <point x="458" y="371" type="line" smooth="yes"/>
      <point x="440" y="371"/>
      <point x="407" y="365"/>
      <point x="398" y="355" type="curve"/>
      <point x="366" y="360"/>
      <point x="333" y="361"/>
      <point x="302" y="361" type="curve" smooth="yes"/>
      <point x="281" y="361"/>
      <point x="267" y="359"/>
      <point x="243" y="359" type="curve" smooth="yes"/>
      <point x="208" y="359"/>
      <point x="182" y="379"/>
      <point x="182" y="407" type="curve" smooth="yes"/>
      <point x="182" y="435"/>
      <point x="209" y="456"/>
      <point x="246" y="456" type="curve" smooth="yes"/>
      <point x="454" y="456" type="line"/>
      <point x="454" y="597" type="line"/>
      <point x="661" y="597" type="line"/>
      <point x="655" y="625"/>
      <point x="651" y="652"/>
      <point x="645" y="680" type="curve"/>
      <point x="-11" y="680" type="line"/>
      <point x="-5" y="652"/>
      <point x="-1" y="625"/>
      <point x="4" y="597" type="curve"/>
      <point x="344" y="597" type="line"/>
      <point x="344" y="540" type="line"/>
      <point x="239" y="540" type="line" smooth="yes"/>
      <point x="154" y="540"/>
      <point x="80" y="489"/>
      <point x="80" y="408" type="curve" smooth="yes"/>
      <point x="80" y="370"/>
      <point x="101" y="336"/>
      <point x="138" y="312" type="curve"/>
      <point x="90" y="277"/>
      <point x="63" y="229"/>
      <point x="63" y="171" type="curve" smooth="yes"/>
      <point x="63" y="53"/>
      <point x="156" y="-18"/>
      <point x="313" y="-18" type="curve" smooth="yes"/>
      <point x="369" y="-18"/>
      <point x="417" y="-13"/>
      <point x="468" y="4" type="curve"/>
      <point x="461" y="32"/>
      <point x="452" y="61"/>
      <point x="445" y="90" type="curve"/>
      <point x="402" y="76"/>
      <point x="353" y="71"/>
      <point x="309" y="71" type="curve" smooth="yes"/>
      <point x="223" y="71"/>
      <point x="168" y="111"/>
      <point x="168" y="173" type="curve" smooth="yes"/>
      <point x="168" y="234"/>
      <point x="224" y="276"/>
      <point x="307" y="276" type="curve" smooth="yes"/>
      <point x="339" y="276"/>
      <point x="372" y="271"/>
      <point x="404" y="263" type="curve"/>
      <point x="428" y="231"/>
      <point x="469" y="209"/>
      <point x="505" y="209" type="curve" smooth="yes"/>
      <point x="532" y="209"/>
      <point x="546" y="234"/>
      <point x="546" y="290" type="curve"/>
    </contour>
  </outline>
</glyph>
<glyph name="dv_HMa" format="1">
  <advance width="977"/>
  <outline>
    <contour>
      <point x="762" y="294" type="line"/>
      <point x="762" y="0" type="line"/>
      <point x="867" y="-16" type="line"/>
      <point x="867" y="597" type="line"/>
      <point x="989" y="597" type="line"/>
      <point x="974" y="680" type="line"/>
      <point x="-11" y="680" type="line"/>
      <point x="-5" y="652"/>
      <point x="-1" y="625"/>
      <point x="4" y="597" type="curve"/>
      <point x="344" y="597" type="line"/>
      <point x="344" y="540" type="line"/>
      <point x="239" y="540" type="line" smooth="yes"/>
      <point x="153" y="540"/>
      <point x="80" y="490"/>
      <point x="80" y="408" type="curve" smooth="yes"/>
      <point x="80" y="370"/>
      <point x="101" y="336"/>
      <point x="138" y="312" type="curve"/>
      <point x="90" y="277"/>
      <point x="63" y="229"/>
      <point x="63" y="171" type="curve" smooth="yes"/>
      <point x="63" y="52"/>
      <point x="155" y="-18"/>
      <point x="313" y="-18" type="curve" smooth="yes"/>
      <point x="371" y="-18"/>
      <point x="417" y="-12"/>
      <point x="468" y="4" type="curve"/>
      <point x="461" y="32"/>
      <point x="452" y="61"/>
      <point x="445" y="90" type="curve"/>
      <point x="403" y="78"/>
      <point x="367" y="73"/>
      <point x="322" y="73" type="curve" smooth="yes"/>
      <point x="226" y="73"/>
      <point x="168" y="107"/>
      <point x="168" y="173" type="curve" smooth="yes"/>
      <point x="168" y="234"/>
      <point x="224" y="276"/>
      <point x="307" y="276" type="curve" smooth="yes"/>
      <point x="341" y="276"/>
      <point x="375" y="271"/>
      <point x="408" y="262" type="curve"/>
      <point x="432" y="233"/>
      <point x="471" y="213"/>
      <point x="505" y="213" type="curve" smooth="yes"/>
      <point x="543" y="213"/>
      <point x="545" y="262"/>
      <point x="545" y="294" type="curve"/>
    </contour>
    <contour>
      <point x="302" y="361" type="curve" smooth="yes"/>
      <point x="286" y="361"/>
      <point x="275" y="359"/>
      <point x="254" y="359" type="curve" smooth="yes"/>
      <point x="217" y="359"/>
      <point x="182" y="377"/>
      <point x="182" y="407" type="curve" smooth="yes"/>
      <point x="182" y="435"/>
      <point x="212" y="456"/>
      <point x="246" y="456" type="curve" smooth="yes"/>
      <point x="454" y="456" type="line"/>
      <point x="454" y="597" type="line"/>
      <point x="762" y="597" type="line"/>
      <point x="762" y="375" type="line"/>
      <point x="457" y="375" type="line" smooth="yes"/>
      <point x="429" y="375"/>
      <point x="401" y="362"/>
      <point x="392" y="355" type="curve"/>
      <point x="361" y="360"/>
      <point x="331" y="361"/>
    </contour>
  </outline>
</glyph>
<glyph name="dv_HMatraUu" format="1">
  <advance width="549"/>
  <outline>
    <contour>
      <point x="468" y="338" type="line"/>
      <point x="411" y="357"/>
      <point x="356" y="361"/>
      <point x="302" y="361" type="curve" smooth="yes"/>
      <point x="281" y="361"/>
      <point x="267" y="359"/>
      <point x="243" y="359" type="curve" smooth="yes"/>
      <point x="208" y="359"/>
      <point x="182" y="383"/>
      <point x="182" y="407" type="curve" smooth="yes"/>
      <point x="182" y="435"/>
      <point x="212" y="456"/>
      <point x="246" y="456" type="curve" smooth="yes"/>
      <point x="454" y="456" type="line"/>
      <point x="454" y="597" type="line"/>
      <point x="561" y="597" type="line"/>
      <point x="556" y="625"/>
      <point x="551" y="652"/>
      <point x="545" y="680" type="curve"/>
      <point x="-11" y="680" type="line"/>
      <point x="-5" y="652"/>
      <point x="-1" y="625"/>
      <point x="4" y="597" type="curve"/>
      <point x="344" y="597" type="line"/>
      <point x="344" y="540" type="line"/>
      <point x="239" y="540" type="line" smooth="yes"/>
      <point x="153" y="540"/>
      <point x="80" y="490"/>
      <point x="80" y="408" type="curve" smooth="yes"/>
      <point x="80" y="370"/>
      <point x="101" y="336"/>
      <point x="138" y="312" type="curve"/>
      <point x="90" y="277"/>
      <point x="63" y="228"/>
      <point x="63" y="171" type="curve" smooth="yes"/>
      <point x="63" y="104"/>
      <point x="92" y="52"/>
      <point x="147" y="20" type="curve"/>
      <point x="118" y="-3"/>
      <point x="101" y="-39"/>
      <point x="101" y="-84" type="curve" smooth="yes"/>
      <point x="101" y="-178"/>
      <point x="178" y="-233"/>
      <point x="254" y="-233" type="curve" smooth="yes"/>
      <point x="326" y="-233" type="line"/>
      <point x="326" y="-151" type="line"/>
      <point x="264" y="-151" type="line" smooth="yes"/>
      <point x="218" y="-151"/>
      <point x="189" y="-123"/>
      <point x="189" y="-84" type="curve" smooth="yes"/>
      <point x="189" y="-48"/>
      <point x="217" y="-17"/>
      <point x="264" y="-17" type="curve" smooth="yes"/>
      <point x="336" y="-17"/>
      <point x="385" y="-70"/>
      <point x="456" y="-153" type="curve"/>
      <point x="476" y="-138"/>
      <point x="498" y="-124"/>
      <point x="518" y="-109" type="curve"/>
      <point x="492" y="-68"/>
      <point x="460" y="-33"/>
      <point x="427" y="-6" type="curve"/>
      <point x="441" y="-3"/>
      <point x="455" y="0"/>
      <point x="468" y="4" type="curve"/>
      <point x="461" y="32"/>
      <point x="452" y="61"/>
      <point x="445" y="90" type="curve"/>
      <point x="402" y="76"/>
      <point x="353" y="71"/>
      <point x="309" y="71" type="curve" smooth="yes"/>
      <point x="221" y="71"/>
      <point x="178" y="118"/>
      <point x="178" y="174" type="curve" smooth="yes"/>
      <point x="178" y="235"/>
      <point x="221" y="276"/>
      <point x="307" y="276" type="curve" smooth="yes"/>
      <point x="354" y="276"/>
      <point x="400" y="266"/>
      <point x="445" y="252" type="curve"/>
    </contour>
  </outline>
</glyph>
<glyph name="dv_HMatraVocalicR" format="1">
  <advance width="549"/>
  <outline>
    <contour>
      <point x="468" y="338" type="line"/>
      <point x="411" y="357"/>
      <point x="356" y="361"/>
      <point x="302" y="361" type="curve" smooth="yes"/>
      <point x="281" y="361"/>
      <point x="267" y="359"/>
      <point x="243" y="359" type="curve" smooth="yes"/>
      <point x="208" y="359"/>
      <point x="182" y="383"/>
      <point x="182" y="407" type="curve" smooth="yes"/>
      <point x="182" y="435"/>
      <point x="212" y="456"/>
      <point x="246" y="456" type="curve" smooth="yes"/>
      <point x="454" y="456" type="line"/>
      <point x="454" y="597" type="line"/>
      <point x="561" y="597" type="line"/>
      <point x="556" y="625"/>
      <point x="551" y="652"/>
      <point x="545" y="680" type="curve"/>
      <point x="-11" y="680" type="line"/>
      <point x="-5" y="652"/>
      <point x="-1" y="625"/>
      <point x="4" y="597" type="curve"/>
      <point x="344" y="597" type="line"/>
      <point x="344" y="540" type="line"/>
      <point x="239" y="540" type="line" smooth="yes"/>
      <point x="153" y="540"/>
      <point x="80" y="490"/>
      <point x="80" y="408" type="curve" smooth="yes"/>
      <point x="80" y="370"/>
      <point x="101" y="336"/>
      <point x="138" y="312" type="curve"/>
      <point x="90" y="277"/>
      <point x="63" y="229"/>
      <point x="63" y="171" type="curve" smooth="yes"/>
      <point x="63" y="89"/>
      <point x="111" y="19"/>
      <point x="195" y="-1" type="curve"/>
      <point x="180" y="-21"/>
      <point x="168" y="-56"/>
      <point x="168" y="-84" type="curve" smooth="yes"/>
      <point x="168" y="-177"/>
      <point x="242" y="-233"/>
      <point x="322" y="-233" type="curve" smooth="yes"/>
      <point x="351" y="-233"/>
      <point x="382" y="-230"/>
      <point x="414" y="-219" type="curve"/>
      <point x="409" y="-192"/>
      <point x="403" y="-166"/>
      <point x="397" y="-139" type="curve"/>
      <point x="369" y="-149"/>
      <point x="349" y="-152"/>
      <point x="331" y="-152" type="curve" smooth="yes"/>
      <point x="293" y="-152"/>
      <point x="261" y="-129"/>
      <point x="261" y="-98" type="curve" smooth="yes"/>
      <point x="261" y="-25"/>
      <point x="341" y="-22"/>
      <point x="413" y="-10" type="curve" smooth="yes"/>
      <point x="432" y="-7"/>
      <point x="447" y="-3"/>
      <point x="468" y="4" type="curve"/>
      <point x="461" y="32"/>
      <point x="452" y="61"/>
      <point x="445" y="90" type="curve"/>
      <point x="402" y="76"/>
      <point x="353" y="71"/>
      <point x="309" y="71" type="curve" smooth="yes"/>
      <point x="228" y="71"/>
      <point x="178" y="105"/>
      <point x="178" y="174" type="curve" smooth="yes"/>
      <point x="178" y="228"/>
      <point x="217" y="276"/>
      <point x="307" y="276" type="curve" smooth="yes"/>
      <point x="354" y="276"/>
      <point x="400" y="266"/>
      <point x="445" y="252" type="curve"/>
    </contour>
  </outline>
</glyph>
<glyph name="dv_HNa" format="1">
  <advance width="816"/>
  <outline>
    <contour>
      <point x="600" y="0" type="line"/>
      <point x="705" y="-16" type="line"/>
      <point x="705" y="597" type="line"/>
      <point x="827" y="597" type="line"/>
      <point x="822" y="625"/>
      <point x="816" y="652"/>
      <point x="810" y="680" type="curve"/>
      <point x="-11" y="680" type="line"/>
      <point x="-5" y="652"/>
      <point x="-1" y="625"/>
      <point x="4" y="597" type="curve"/>
      <point x="344" y="597" type="line"/>
      <point x="344" y="540" type="line"/>
      <point x="239" y="540" type="line" smooth="yes"/>
      <point x="153" y="540"/>
      <point x="80" y="490"/>
      <point x="80" y="408" type="curve" smooth="yes"/>
      <point x="80" y="370"/>
      <point x="101" y="336"/>
      <point x="138" y="312" type="curve"/>
      <point x="90" y="277"/>
      <point x="63" y="229"/>
      <point x="63" y="171" type="curve" smooth="yes"/>
      <point x="63" y="53"/>
      <point x="156" y="-18"/>
      <point x="313" y="-18" type="curve" smooth="yes"/>
      <point x="321" y="-18"/>
      <point x="330" y="-18"/>
      <point x="339" y="-17" type="curve"/>
      <point x="339" y="-59"/>
      <point x="381" y="-79"/>
      <point x="421" y="-79" type="curve" smooth="yes"/>
      <point x="470" y="-79"/>
      <point x="520" y="-60"/>
      <point x="520" y="-9" type="curve" smooth="yes"/>
      <point x="520" y="10"/>
      <point x="508" y="30"/>
      <point x="488" y="48" type="curve"/>
      <point x="600" y="189" type="line"/>
    </contour>
    <contour>
      <point x="309" y="71" type="curve" smooth="yes"/>
      <point x="223" y="71"/>
      <point x="168" y="111"/>
      <point x="168" y="173" type="curve" smooth="yes"/>
      <point x="168" y="234"/>
      <point x="224" y="276"/>
      <point x="307" y="276" type="curve" smooth="yes"/>
      <point x="561" y="276" type="line"/>
      <point x="406" y="81" type="line"/>
      <point x="376" y="74"/>
      <point x="340" y="71"/>
    </contour>
    <contour>
      <point x="268" y="360" type="curve" smooth="yes"/>
      <point x="217" y="360"/>
      <point x="182" y="383"/>
      <point x="182" y="407" type="curve" smooth="yes"/>
      <point x="182" y="435"/>
      <point x="212" y="456"/>
      <point x="246" y="456" type="curve" smooth="yes"/>
      <point x="454" y="456" type="line"/>
      <point x="454" y="597" type="line"/>
      <point x="600" y="597" type="line"/>
      <point x="600" y="361" type="line"/>
      <point x="323" y="361" type="line" smooth="yes"/>
      <point x="306" y="361"/>
      <point x="291" y="360"/>
    </contour>
  </outline>
</glyph>
<glyph name="dv_HRa" format="1">
  <advance width="549"/>
  <outline>
    <contour>
      <point x="468" y="338" type="line"/>
      <point x="411" y="357"/>
      <point x="356" y="361"/>
      <point x="302" y="361" type="curve" smooth="yes"/>
      <point x="281" y="361"/>
      <point x="267" y="359"/>
      <point x="243" y="359" type="curve" smooth="yes"/>
      <point x="208" y="359"/>
      <point x="182" y="383"/>
      <point x="182" y="407" type="curve" smooth="yes"/>
      <point x="182" y="435"/>
      <point x="212" y="456"/>
      <point x="246" y="456" type="curve" smooth="yes"/>
      <point x="454" y="456" type="line"/>
      <point x="454" y="597" type="line"/>
      <point x="561" y="597" type="line"/>
      <point x="556" y="625"/>
      <point x="551" y="652"/>
      <point x="545" y="680" type="curve"/>
      <point x="-11" y="680" type="line"/>
      <point x="-5" y="652"/>
      <point x="-1" y="625"/>
      <point x="4" y="597" type="curve"/>
      <point x="344" y="597" type="line"/>
      <point x="344" y="540" type="line"/>
      <point x="239" y="540" type="line" smooth="yes"/>
      <point x="153" y="540"/>
      <point x="80" y="490"/>
      <point x="80" y="408" type="curve" smooth="yes"/>
      <point x="80" y="370"/>
      <point x="101" y="336"/>
      <point x="138" y="312" type="curve"/>
      <point x="90" y="277"/>
      <point x="63" y="229"/>
      <point x="63" y="171" type="curve" smooth="yes"/>
      <point x="63" y="51"/>
      <point x="155" y="-18"/>
      <point x="313" y="-18" type="curve" smooth="yes"/>
      <point x="369" y="-18"/>
      <point x="417" y="-13"/>
      <point x="468" y="4" type="curve"/>
      <point x="461" y="32"/>
      <point x="452" y="61"/>
      <point x="445" y="90" type="curve"/>
      <point x="401" y="77"/>
      <point x="360" y="71"/>
      <point x="315" y="71" type="curve" smooth="yes"/>
      <point x="223" y="71"/>
      <point x="168" y="108"/>
      <point x="168" y="173" type="curve" smooth="yes"/>
      <point x="168" y="238"/>
      <point x="228" y="269"/>
      <point x="307" y="276" type="curve"/>
      <point x="247" y="161" type="line"/>
      <point x="343" y="139" type="line"/>
      <point x="396" y="265" type="line"/>
      <point x="445" y="252" type="line"/>
    </contour>
  </outline>
</glyph>
<glyph name="dv_HVa" format="1">
  <advance width="1047"/>
  <outline>
    <contour>
      <point x="832" y="0" type="line"/>
      <point x="936" y="-16" type="line"/>
      <point x="936" y="597" type="line"/>
      <point x="1058" y="597" type="line"/>
      <point x="1042" y="680" type="line"/>
      <point x="-11" y="680" type="line"/>
      <point x="-5" y="652"/>
      <point x="-1" y="625"/>
      <point x="4" y="597" type="curve"/>
      <point x="344" y="597" type="line"/>
      <point x="344" y="540" type="line"/>
      <point x="239" y="540" type="line" smooth="yes"/>
      <point x="153" y="540"/>
      <point x="80" y="490"/>
      <point x="80" y="408" type="curve" smooth="yes"/>
      <point x="80" y="370"/>
      <point x="101" y="336"/>
      <point x="138" y="312" type="curve"/>
      <point x="90" y="277"/>
      <point x="63" y="229"/>
      <point x="63" y="171" type="curve" smooth="yes"/>
      <point x="63" y="53"/>
      <point x="156" y="-18"/>
      <point x="313" y="-18" type="curve" smooth="yes"/>
      <point x="371" y="-18"/>
      <point x="417" y="-12"/>
      <point x="468" y="4" type="curve"/>
      <point x="461" y="32"/>
      <point x="452" y="61"/>
      <point x="445" y="90" type="curve"/>
      <point x="404" y="78"/>
      <point x="370" y="73"/>
      <point x="327" y="73" type="curve" smooth="yes"/>
      <point x="229" y="73"/>
      <point x="168" y="108"/>
      <point x="168" y="173" type="curve" smooth="yes"/>
      <point x="168" y="240"/>
      <point x="237" y="276"/>
      <point x="336" y="276" type="curve" smooth="yes"/>
      <point x="476" y="276" type="line"/>
      <point x="483" y="158"/>
      <point x="577" y="80"/>
      <point x="702" y="80" type="curve" smooth="yes"/>
      <point x="753" y="80"/>
      <point x="806" y="105"/>
      <point x="832" y="131" type="curve"/>
    </contour>
    <contour>
      <point x="243" y="359" type="curve" smooth="yes"/>
      <point x="208" y="359"/>
      <point x="182" y="383"/>
      <point x="182" y="407" type="curve" smooth="yes"/>
      <point x="182" y="435"/>
      <point x="212" y="456"/>
      <point x="246" y="456" type="curve" smooth="yes"/>
      <point x="454" y="456" type="line"/>
      <point x="454" y="597" type="line"/>
      <point x="832" y="597" type="line"/>
      <point x="832" y="453" type="line"/>
      <point x="806" y="479"/>
      <point x="753" y="503"/>
      <point x="702" y="503" type="curve" smooth="yes"/>
      <point x="593" y="503"/>
      <point x="514" y="445"/>
      <point x="486" y="361" type="curve"/>
      <point x="302" y="361" type="line" smooth="yes"/>
      <point x="281" y="361"/>
      <point x="267" y="359"/>
    </contour>
    <contour>
      <point x="580" y="291" type="curve" smooth="yes"/>
      <point x="580" y="365"/>
      <point x="639" y="416"/>
      <point x="704" y="416" type="curve" smooth="yes"/>
      <point x="771" y="416"/>
      <point x="809" y="376"/>
      <point x="832" y="342" type="curve"/>
      <point x="832" y="240" type="line"/>
      <point x="809" y="207"/>
      <point x="771" y="167"/>
      <point x="704" y="167" type="curve" smooth="yes"/>
      <point x="636" y="167"/>
      <point x="580" y="218"/>
    </contour>
  </outline>
</glyph>
<glyph name="dv_HYa" format="1">
  <advance width="1095"/>
  <outline>
    <contour>
      <point x="468" y="338" type="line"/>
      <point x="411" y="357"/>
      <point x="356" y="361"/>
      <point x="302" y="361" type="curve" smooth="yes"/>
      <point x="281" y="361"/>
      <point x="267" y="359"/>
      <point x="243" y="359" type="curve" smooth="yes"/>
      <point x="208" y="359"/>
      <point x="182" y="379"/>
      <point x="182" y="407" type="curve" smooth="yes"/>
      <point x="182" y="435"/>
      <point x="209" y="456"/>
      <point x="246" y="456" type="curve" smooth="yes"/>
      <point x="533" y="456" type="line" smooth="yes"/>
      <point x="573" y="456"/>
      <point x="600" y="444"/>
      <point x="600" y="424" type="curve" smooth="yes"/>
      <point x="600" y="396"/>
      <point x="565" y="387"/>
      <point x="529" y="377" type="curve"/>
      <point x="511" y="354" type="line"/>
      <point x="511" y="251"/>
      <point x="621" y="158"/>
      <point x="743" y="158" type="curve" smooth="yes"/>
      <point x="806" y="158"/>
      <point x="848" y="174"/>
      <point x="880" y="198" type="curve"/>
      <point x="880" y="0" type="line"/>
      <point x="984" y="-16" type="line"/>
      <point x="984" y="597" type="line"/>
      <point x="1107" y="597" type="line"/>
      <point x="1101" y="625"/>
      <point x="1097" y="652"/>
      <point x="1091" y="680" type="curve"/>
      <point x="-11" y="680" type="line"/>
      <point x="-5" y="652"/>
      <point x="-1" y="625"/>
      <point x="4" y="597" type="curve"/>
      <point x="344" y="597" type="line"/>
      <point x="344" y="540" type="line"/>
      <point x="239" y="540" type="line" smooth="yes"/>
      <point x="153" y="540"/>
      <point x="80" y="490"/>
      <point x="80" y="408" type="curve" smooth="yes"/>
      <point x="80" y="370"/>
      <point x="101" y="336"/>
      <point x="138" y="312" type="curve"/>
      <point x="90" y="277"/>
      <point x="63" y="229"/>
      <point x="63" y="171" type="curve" smooth="yes"/>
      <point x="63" y="53"/>
      <point x="156" y="-18"/>
      <point x="313" y="-18" type="curve" smooth="yes"/>
      <point x="369" y="-18"/>
      <point x="417" y="-13"/>
      <point x="468" y="4" type="curve"/>
      <point x="461" y="32"/>
      <point x="452" y="61"/>
      <point x="445" y="90" type="curve"/>
      <point x="403" y="78"/>
      <point x="367" y="73"/>
      <point x="322" y="73" type="curve" smooth="yes"/>
      <point x="226" y="73"/>
      <point x="168" y="107"/>
      <point x="168" y="173" type="curve" smooth="yes"/>
      <point x="168" y="236"/>
      <point x="228" y="274"/>
      <point x="316" y="274" type="curve" smooth="yes"/>
      <point x="359" y="274"/>
      <point x="403" y="265"/>
      <point x="445" y="252" type="curve"/>
    </contour>
    <contour>
      <point x="880" y="597" type="line"/>
      <point x="880" y="366" type="line"/>
      <point x="875" y="291"/>
      <point x="822" y="245"/>
      <point x="745" y="245" type="curve"/>
      <point x="674" y="248"/>
      <point x="627" y="290"/>
      <point x="610" y="333" type="curve"/>
      <point x="663" y="361"/>
      <point x="692" y="384"/>
      <point x="692" y="441" type="curve" smooth="yes"/>
      <point x="692" y="487"/>
      <point x="649" y="536"/>
      <point x="565" y="536" type="curve" smooth="yes"/>
      <point x="454" y="536" type="line"/>
      <point x="454" y="597" type="line"/>
    </contour>
  </outline>
</glyph>
<glyph name="dv_H.half" format="1">
  <advance width="549"/>
  <outline>
    <contour>
      <point x="617" y="361" type="line"/>
      <point x="302" y="361" type="line" smooth="yes"/>
      <point x="281" y="361"/>
      <point x="267" y="359"/>
      <point x="243" y="359" type="curve" smooth="yes"/>
      <point x="208" y="359"/>
      <point x="182" y="379"/>
      <point x="182" y="407" type="curve" smooth="yes"/>
      <point x="182" y="435"/>
      <point x="209" y="456"/>
      <point x="246" y="456" type="curve" smooth="yes"/>
      <point x="454" y="456" type="line"/>
      <point x="454" y="597" type="line"/>
      <point x="561" y="597" type="line"/>
      <point x="556" y="625"/>
      <point x="551" y="652"/>
      <point x="545" y="680" type="curve"/>
      <point x="-11" y="680" type="line"/>
      <point x="-5" y="652"/>
      <point x="-1" y="625"/>
      <point x="4" y="597" type="curve"/>
      <point x="344" y="597" type="line"/>
      <point x="344" y="540" type="line"/>
      <point x="239" y="540" type="line" smooth="yes"/>
      <point x="153" y="540"/>
      <point x="80" y="490"/>
      <point x="80" y="408" type="curve" smooth="yes"/>
      <point x="80" y="370"/>
      <point x="101" y="336"/>
      <point x="138" y="312" type="curve"/>
      <point x="90" y="277"/>
      <point x="63" y="229"/>
      <point x="63" y="171" type="curve" smooth="yes"/>
      <point x="63" y="53"/>
      <point x="156" y="-18"/>
      <point x="313" y="-18" type="curve" smooth="yes"/>
      <point x="369" y="-18"/>
      <point x="417" y="-13"/>
      <point x="468" y="4" type="curve"/>
      <point x="461" y="32"/>
      <point x="452" y="61"/>
      <point x="445" y="90" type="curve"/>
      <point x="402" y="76"/>
      <point x="353" y="71"/>
      <point x="309" y="71" type="curve" smooth="yes"/>
      <point x="223" y="71"/>
      <point x="168" y="111"/>
      <point x="168" y="173" type="curve" smooth="yes"/>
      <point x="168" y="234"/>
      <point x="224" y="276"/>
      <point x="307" y="276" type="curve" smooth="yes"/>
      <point x="617" y="276" type="line"/>
    </contour>
  </outline>
</glyph>
<glyph name="dv_JhHa" format="1">
  <advance width="1104"/>
  <outline>
    <contour>
      <point x="1022" y="338" type="line"/>
      <point x="965" y="357"/>
      <point x="910" y="361"/>
      <point x="856" y="361" type="curve" smooth="yes"/>
      <point x="835" y="361"/>
      <point x="821" y="359"/>
      <point x="797" y="359" type="curve" smooth="yes"/>
      <point x="762" y="359"/>
      <point x="736" y="383"/>
      <point x="736" y="407" type="curve" smooth="yes"/>
      <point x="736" y="435"/>
      <point x="766" y="456"/>
      <point x="800" y="456" type="curve" smooth="yes"/>
      <point x="1008" y="456" type="line"/>
      <point x="1008" y="597" type="line"/>
      <point x="1115" y="597" type="line"/>
      <point x="1110" y="625"/>
      <point x="1105" y="652"/>
      <point x="1099" y="680" type="curve"/>
      <point x="-11" y="680" type="line"/>
      <point x="-5" y="652"/>
      <point x="-1" y="625"/>
      <point x="4" y="597" type="curve"/>
      <point x="342" y="597" type="line"/>
      <point x="342" y="519" type="line"/>
      <point x="214" y="519" type="line" smooth="yes"/>
      <point x="122" y="519"/>
      <point x="51" y="467"/>
      <point x="51" y="376" type="curve" smooth="yes"/>
      <point x="51" y="291"/>
      <point x="133" y="233"/>
      <point x="215" y="233" type="curve" smooth="yes"/>
      <point x="309" y="233" type="line" smooth="yes"/>
      <point x="365" y="233"/>
      <point x="397" y="199"/>
      <point x="397" y="153" type="curve" smooth="yes"/>
      <point x="397" y="111"/>
      <point x="359" y="68"/>
      <point x="277" y="68" type="curve" smooth="yes"/>
      <point x="253" y="68"/>
      <point x="230" y="72"/>
      <point x="208" y="76" type="curve"/>
      <point x="193" y="119"/>
      <point x="151" y="155"/>
      <point x="102" y="155" type="curve" smooth="yes"/>
      <point x="70" y="155"/>
      <point x="51" y="135"/>
      <point x="51" y="106" type="curve" smooth="yes"/>
      <point x="51" y="52"/>
      <point x="97" y="14"/>
      <point x="137" y="-4" type="curve"/>
      <point x="263" y="-170" type="line"/>
      <point x="286" y="-153"/>
      <point x="309" y="-137"/>
      <point x="332" y="-121" type="curve"/>
      <point x="247" y="-14" type="line"/>
      <point x="259" y="-15"/>
      <point x="271" y="-15"/>
      <point x="284" y="-15" type="curve" smooth="yes"/>
      <point x="424" y="-15"/>
      <point x="503" y="64"/>
      <point x="503" y="152" type="curve" smooth="yes"/>
      <point x="503" y="164"/>
      <point x="501" y="176"/>
      <point x="498" y="186" type="curve"/>
      <point x="617" y="186" type="line"/>
      <point x="617" y="171" type="line" smooth="yes"/>
      <point x="617" y="51"/>
      <point x="709" y="-18"/>
      <point x="867" y="-18" type="curve" smooth="yes"/>
      <point x="923" y="-18"/>
      <point x="971" y="-13"/>
      <point x="1022" y="4" type="curve"/>
      <point x="1015" y="32"/>
      <point x="1006" y="61"/>
      <point x="999" y="90" type="curve"/>
      <point x="955" y="77"/>
      <point x="914" y="71"/>
      <point x="869" y="71" type="curve" smooth="yes"/>
      <point x="780" y="71"/>
      <point x="726" y="113"/>
      <point x="726" y="169" type="curve" smooth="yes"/>
      <point x="726" y="229"/>
      <point x="772" y="276"/>
      <point x="861" y="276" type="curve" smooth="yes"/>
      <point x="908" y="276"/>
      <point x="954" y="266"/>
      <point x="999" y="252" type="curve"/>
    </contour>
    <contour>
      <point x="463" y="264" type="line"/>
      <point x="428" y="301"/>
      <point x="371" y="319"/>
      <point x="300" y="319" type="curve" smooth="yes"/>
      <point x="218" y="319" type="line" smooth="yes"/>
      <point x="178" y="319"/>
      <point x="151" y="344"/>
      <point x="151" y="376" type="curve" smooth="yes"/>
      <point x="151" y="414"/>
      <point x="186" y="432"/>
      <point x="235" y="432" type="curve" smooth="yes"/>
      <point x="446" y="432" type="line"/>
      <point x="446" y="597" type="line"/>
      <point x="898" y="597" type="line"/>
      <point x="898" y="540" type="line"/>
      <point x="793" y="540" type="line" smooth="yes"/>
      <point x="706" y="540"/>
      <point x="636" y="488"/>
      <point x="636" y="407" type="curve" smooth="yes"/>
      <point x="636" y="372"/>
      <point x="655" y="336"/>
      <point x="692" y="312" type="curve"/>
      <point x="673" y="298"/>
      <point x="656" y="282"/>
      <point x="644" y="264" type="curve"/>
    </contour>
  </outline>
</glyph>
<glyph name="dv_KHa" format="1">
  <advance width="1170"/>
  <outline>
    <contour>
      <point x="1089" y="338" type="line"/>
      <point x="1032" y="357"/>
      <point x="977" y="361"/>
      <point x="923" y="361" type="curve" smooth="yes"/>
      <point x="902" y="361"/>
      <point x="888" y="359"/>
      <point x="864" y="359" type="curve" smooth="yes"/>
      <point x="829" y="359"/>
      <point x="803" y="379"/>
      <point x="803" y="407" type="curve" smooth="yes"/>
      <point x="803" y="435"/>
      <point x="830" y="456"/>
      <point x="867" y="456" type="curve" smooth="yes"/>
      <point x="1075" y="456" type="line"/>
      <point x="1075" y="597" type="line"/>
      <point x="1182" y="597" type="line"/>
      <point x="1177" y="625"/>
      <point x="1172" y="652"/>
      <point x="1166" y="680" type="curve"/>
      <point x="-11" y="680" type="line"/>
      <point x="-5" y="652"/>
      <point x="-1" y="625"/>
      <point x="4" y="597" type="curve"/>
      <point x="404" y="597" type="line"/>
      <point x="404" y="456" type="line"/>
      <point x="374" y="481"/>
      <point x="325" y="504"/>
      <point x="274" y="504" type="curve" smooth="yes"/>
      <point x="137" y="504"/>
      <point x="47" y="412"/>
      <point x="47" y="291" type="curve" smooth="yes"/>
      <point x="47" y="166"/>
      <point x="143" y="80"/>
      <point x="274" y="80" type="curve" smooth="yes"/>
      <point x="325" y="80"/>
      <point x="374" y="103"/>
      <point x="404" y="128" type="curve"/>
      <point x="404" y="0" type="line"/>
      <point x="508" y="-16" type="line"/>
      <point x="508" y="338" type="line"/>
      <point x="534" y="386"/>
      <point x="595" y="417"/>
      <point x="644" y="417" type="curve" smooth="yes"/>
      <point x="703" y="417" type="line"/>
      <point x="703" y="375"/>
      <point x="717" y="336"/>
      <point x="759" y="312" type="curve"/>
      <point x="711" y="277"/>
      <point x="684" y="229"/>
      <point x="684" y="171" type="curve" smooth="yes"/>
      <point x="684" y="53"/>
      <point x="777" y="-18"/>
      <point x="934" y="-18" type="curve" smooth="yes"/>
      <point x="990" y="-18"/>
      <point x="1038" y="-13"/>
      <point x="1089" y="4" type="curve"/>
      <point x="1082" y="32"/>
      <point x="1073" y="61"/>
      <point x="1066" y="90" type="curve"/>
      <point x="1024" y="78"/>
      <point x="988" y="73"/>
      <point x="943" y="73" type="curve" smooth="yes"/>
      <point x="847" y="73"/>
      <point x="789" y="107"/>
      <point x="789" y="173" type="curve" smooth="yes"/>
      <point x="789" y="230"/>
      <point x="846" y="276"/>
      <point x="928" y="276" type="curve" smooth="yes"/>
      <point x="975" y="276"/>
      <point x="1021" y="266"/>
      <point x="1066" y="252" type="curve"/>
    </contour>
    <contour>
      <point x="152" y="292" type="curve" smooth="yes"/>
      <point x="152" y="366"/>
      <point x="207" y="417"/>
      <point x="272" y="417" type="curve" smooth="yes"/>
      <point x="349" y="417"/>
      <point x="381" y="373"/>
      <point x="404" y="340" type="curve"/>
      <point x="404" y="244" type="line"/>
      <point x="380" y="209"/>
      <point x="349" y="167"/>
      <point x="272" y="167" type="curve" smooth="yes"/>
      <point x="204" y="167"/>
      <point x="152" y="218"/>
    </contour>
    <contour>
      <point x="508" y="449" type="curve"/>
      <point x="508" y="597" type="line"/>
      <point x="965" y="597" type="line"/>
      <point x="965" y="540" type="line"/>
      <point x="860" y="540" type="line" smooth="yes"/>
      <point x="813" y="540"/>
      <point x="771" y="525"/>
      <point x="741" y="499" type="curve"/>
      <point x="642" y="499" type="line" smooth="yes"/>
      <point x="574" y="499"/>
      <point x="536" y="474"/>
    </contour>
  </outline>
</glyph>
<glyph name="dv_LHYa" format="1">
  <advance width="1635"/>
  <outline>
    <contour>
      <point x="1003" y="338" type="line"/>
      <point x="946" y="357"/>
      <point x="891" y="361"/>
      <point x="837" y="361" type="curve" smooth="yes"/>
      <point x="816" y="361"/>
      <point x="802" y="359"/>
      <point x="778" y="359" type="curve" smooth="yes"/>
      <point x="743" y="359"/>
      <point x="717" y="379"/>
      <point x="717" y="407" type="curve" smooth="yes"/>
      <point x="717" y="435"/>
      <point x="744" y="456"/>
      <point x="781" y="456" type="curve" smooth="yes"/>
      <point x="1073" y="456" type="line" smooth="yes"/>
      <point x="1113" y="456"/>
      <point x="1140" y="444"/>
      <point x="1140" y="424" type="curve" smooth="yes"/>
      <point x="1140" y="396"/>
      <point x="1105" y="387"/>
      <point x="1069" y="377" type="curve"/>
      <point x="1051" y="354" type="line"/>
      <point x="1051" y="251"/>
      <point x="1162" y="158"/>
      <point x="1283" y="158" type="curve" smooth="yes"/>
      <point x="1346" y="158"/>
      <point x="1388" y="174"/>
      <point x="1420" y="198" type="curve"/>
      <point x="1420" y="0" type="line"/>
      <point x="1525" y="-16" type="line"/>
      <point x="1525" y="597" type="line"/>
      <point x="1647" y="597" type="line"/>
      <point x="1641" y="625"/>
      <point x="1636" y="652"/>
      <point x="1631" y="680" type="curve"/>
      <point x="-11" y="680" type="line"/>
      <point x="-5" y="652"/>
      <point x="-1" y="625"/>
      <point x="4" y="597" type="curve"/>
      <point x="879" y="597" type="line"/>
      <point x="879" y="540" type="line"/>
      <point x="774" y="540" type="line" smooth="yes"/>
      <point x="713" y="540"/>
      <point x="662" y="515"/>
      <point x="636" y="473" type="curve"/>
      <point x="615" y="484"/>
      <point x="585" y="491"/>
      <point x="557" y="491" type="curve" smooth="yes"/>
      <point x="499" y="491"/>
      <point x="446" y="468"/>
      <point x="414" y="425" type="curve"/>
      <point x="380" y="466"/>
      <point x="324" y="491"/>
      <point x="264" y="491" type="curve" smooth="yes"/>
      <point x="158" y="491"/>
      <point x="69" y="407"/>
      <point x="69" y="316" type="curve" smooth="yes"/>
      <point x="69" y="207"/>
      <point x="119" y="117"/>
      <point x="191" y="-21" type="curve"/>
      <point x="219" y="-11"/>
      <point x="247" y="-2"/>
      <point x="275" y="7" type="curve"/>
      <point x="200" y="158"/>
      <point x="166" y="224"/>
      <point x="166" y="308" type="curve" smooth="yes"/>
      <point x="166" y="354"/>
      <point x="210" y="402"/>
      <point x="264" y="402" type="curve" smooth="yes"/>
      <point x="337" y="402"/>
      <point x="367" y="350"/>
      <point x="367" y="275" type="curve" smooth="yes"/>
      <point x="367" y="160" type="line"/>
      <point x="464" y="144" type="line"/>
      <point x="464" y="275" type="line" smooth="yes"/>
      <point x="464" y="344"/>
      <point x="500" y="397"/>
      <point x="554" y="397" type="curve" smooth="yes"/>
      <point x="598" y="397"/>
      <point x="615" y="377"/>
      <point x="623" y="369" type="curve"/>
      <point x="631" y="346"/>
      <point x="648" y="328"/>
      <point x="673" y="312" type="curve"/>
      <point x="625" y="277"/>
      <point x="598" y="229"/>
      <point x="598" y="171" type="curve" smooth="yes"/>
      <point x="598" y="52"/>
      <point x="690" y="-18"/>
      <point x="848" y="-18" type="curve" smooth="yes"/>
      <point x="904" y="-18"/>
      <point x="957" y="-11"/>
      <point x="1003" y="4" type="curve"/>
      <point x="996" y="32"/>
      <point x="987" y="61"/>
      <point x="980" y="90" type="curve"/>
      <point x="938" y="78"/>
      <point x="902" y="73"/>
      <point x="857" y="73" type="curve" smooth="yes"/>
      <point x="761" y="73"/>
      <point x="703" y="107"/>
      <point x="703" y="173" type="curve" smooth="yes"/>
      <point x="703" y="236"/>
      <point x="763" y="274"/>
      <point x="851" y="274" type="curve" smooth="yes"/>
      <point x="894" y="274"/>
      <point x="938" y="265"/>
      <point x="980" y="252" type="curve"/>
    </contour>
    <contour>
      <point x="1420" y="597" type="line"/>
      <point x="1420" y="366" type="line"/>
      <point x="1415" y="291"/>
      <point x="1362" y="245"/>
      <point x="1285" y="245" type="curve"/>
      <point x="1214" y="248"/>
      <point x="1166" y="290"/>
      <point x="1150" y="333" type="curve"/>
      <point x="1203" y="361"/>
      <point x="1233" y="384"/>
      <point x="1233" y="441" type="curve" smooth="yes"/>
      <point x="1233" y="487"/>
      <point x="1189" y="536"/>
      <point x="1106" y="536" type="curve" smooth="yes"/>
      <point x="989" y="536" type="line"/>
      <point x="989" y="597" type="line"/>
    </contour>
  </outline>
</glyph>
<glyph name="dv_LHa" format="1">
  <advance width="1083"/>
  <outline>
    <contour>
      <point x="1002" y="338" type="line"/>
      <point x="945" y="357"/>
      <point x="890" y="361"/>
      <point x="836" y="361" type="curve" smooth="yes"/>
      <point x="815" y="361"/>
      <point x="801" y="359"/>
      <point x="777" y="359" type="curve" smooth="yes"/>
      <point x="742" y="359"/>
      <point x="716" y="379"/>
      <point x="716" y="407" type="curve" smooth="yes"/>
      <point x="716" y="435"/>
      <point x="743" y="456"/>
      <point x="780" y="456" type="curve" smooth="yes"/>
      <point x="988" y="456" type="line"/>
      <point x="988" y="597" type="line"/>
      <point x="1095" y="597" type="line"/>
      <point x="1090" y="625"/>
      <point x="1085" y="652"/>
      <point x="1079" y="680" type="curve"/>
      <point x="-11" y="680" type="line"/>
      <point x="-5" y="652"/>
      <point x="-1" y="625"/>
      <point x="4" y="597" type="curve"/>
      <point x="878" y="597" type="line"/>
      <point x="878" y="540" type="line"/>
      <point x="773" y="540" type="line" smooth="yes"/>
      <point x="711" y="540"/>
      <point x="659" y="514"/>
      <point x="633" y="470" type="curve"/>
      <point x="609" y="483"/>
      <point x="582" y="491"/>
      <point x="552" y="491" type="curve" smooth="yes"/>
      <point x="494" y="491"/>
      <point x="446" y="468"/>
      <point x="414" y="425" type="curve"/>
      <point x="380" y="466"/>
      <point x="324" y="491"/>
      <point x="264" y="491" type="curve" smooth="yes"/>
      <point x="148" y="491"/>
      <point x="69" y="407"/>
      <point x="69" y="316" type="curve" smooth="yes"/>
      <point x="69" y="207"/>
      <point x="119" y="117"/>
      <point x="191" y="-21" type="curve"/>
      <point x="219" y="-11"/>
      <point x="247" y="-2"/>
      <point x="275" y="7" type="curve"/>
      <point x="200" y="158"/>
      <point x="166" y="224"/>
      <point x="166" y="308" type="curve" smooth="yes"/>
      <point x="166" y="354"/>
      <point x="210" y="402"/>
      <point x="264" y="402" type="curve" smooth="yes"/>
      <point x="345" y="402"/>
      <point x="367" y="339"/>
      <point x="367" y="253" type="curve" smooth="yes"/>
      <point x="367" y="160" type="line"/>
      <point x="464" y="144" type="line"/>
      <point x="464" y="275" type="line" smooth="yes"/>
      <point x="464" y="350"/>
      <point x="498" y="401"/>
      <point x="551" y="401" type="curve" smooth="yes"/>
      <point x="585" y="401"/>
      <point x="603" y="387"/>
      <point x="622" y="371" type="curve"/>
      <point x="629" y="347"/>
      <point x="647" y="328"/>
      <point x="672" y="312" type="curve"/>
      <point x="624" y="277"/>
      <point x="597" y="229"/>
      <point x="597" y="171" type="curve" smooth="yes"/>
      <point x="597" y="53"/>
      <point x="690" y="-18"/>
      <point x="847" y="-18" type="curve" smooth="yes"/>
      <point x="903" y="-18"/>
      <point x="951" y="-13"/>
      <point x="1002" y="4" type="curve"/>
      <point x="995" y="32"/>
      <point x="986" y="61"/>
      <point x="979" y="90" type="curve"/>
      <point x="937" y="78"/>
      <point x="901" y="73"/>
      <point x="856" y="73" type="curve" smooth="yes"/>
      <point x="760" y="73"/>
      <point x="702" y="107"/>
      <point x="702" y="173" type="curve" smooth="yes"/>
      <point x="702" y="230"/>
      <point x="759" y="276"/>
      <point x="841" y="276" type="curve" smooth="yes"/>
      <point x="888" y="276"/>
      <point x="934" y="266"/>
      <point x="979" y="252" type="curve"/>
    </contour>
  </outline>
</glyph>
<glyph name="dv_MHa" format="1">
  <advance width="890"/>
  <outline>
    <contour>
      <point x="809" y="338" type="line"/>
      <point x="752" y="357"/>
      <point x="697" y="361"/>
      <point x="642" y="361" type="curve" smooth="yes"/>
      <point x="622" y="361"/>
      <point x="607" y="359"/>
      <point x="584" y="359" type="curve" smooth="yes"/>
      <point x="544" y="359"/>
      <point x="522" y="381"/>
      <point x="522" y="407" type="curve" smooth="yes"/>
      <point x="522" y="434"/>
      <point x="541" y="456"/>
      <point x="587" y="456" type="curve" smooth="yes"/>
      <point x="794" y="456" type="line"/>
      <point x="794" y="597" type="line"/>
      <point x="902" y="597" type="line"/>
      <point x="896" y="625"/>
      <point x="891" y="652"/>
      <point x="886" y="680" type="curve"/>
      <point x="-11" y="680" type="line"/>
      <point x="-5" y="652"/>
      <point x="-1" y="625"/>
      <point x="4" y="597" type="curve"/>
      <point x="117" y="597" type="line"/>
      <point x="117" y="322" type="line"/>
      <point x="71" y="322"/>
      <point x="48" y="298"/>
      <point x="48" y="275" type="curve" smooth="yes"/>
      <point x="48" y="216"/>
      <point x="111" y="160"/>
      <point x="176" y="160" type="curve" smooth="yes"/>
      <point x="194" y="160"/>
      <point x="219" y="184"/>
      <point x="219" y="241" type="curve"/>
      <point x="421" y="241" type="line"/>
      <point x="409" y="220"/>
      <point x="403" y="196"/>
      <point x="403" y="171" type="curve" smooth="yes"/>
      <point x="403" y="53"/>
      <point x="495" y="-18"/>
      <point x="653" y="-18" type="curve" smooth="yes"/>
      <point x="711" y="-18"/>
      <point x="760" y="-13"/>
      <point x="809" y="4" type="curve"/>
      <point x="785" y="90" type="line"/>
      <point x="742" y="77"/>
      <point x="701" y="71"/>
      <point x="655" y="71" type="curve" smooth="yes"/>
      <point x="572" y="71"/>
      <point x="512" y="100"/>
      <point x="512" y="165" type="curve" smooth="yes"/>
      <point x="512" y="224"/>
      <point x="549" y="276"/>
      <point x="647" y="276" type="curve" smooth="yes"/>
      <point x="695" y="276"/>
      <point x="741" y="266"/>
      <point x="785" y="252" type="curve"/>
    </contour>
    <contour>
      <point x="219" y="322" type="curve"/>
      <point x="219" y="597" type="line"/>
      <point x="684" y="597" type="line"/>
      <point x="684" y="540" type="line"/>
      <point x="579" y="540" type="line" smooth="yes"/>
      <point x="493" y="540"/>
      <point x="421" y="490"/>
      <point x="421" y="408" type="curve" smooth="yes"/>
      <point x="421" y="374"/>
      <point x="436" y="346"/>
      <point x="467" y="323" type="curve"/>
      <point x="385" y="323"/>
      <point x="301" y="322"/>
    </contour>
  </outline>
</glyph>
<glyph name="dv_NHYa" format="1">
  <advance width="1383"/>
  <outline>
    <contour>
      <point x="756" y="338" type="line"/>
      <point x="699" y="357"/>
      <point x="644" y="361"/>
      <point x="590" y="361" type="curve" smooth="yes"/>
      <point x="569" y="361"/>
      <point x="555" y="359"/>
      <point x="531" y="359" type="curve" smooth="yes"/>
      <point x="496" y="359"/>
      <point x="470" y="379"/>
      <point x="470" y="407" type="curve" smooth="yes"/>
      <point x="470" y="435"/>
      <point x="497" y="456"/>
      <point x="534" y="456" type="curve" smooth="yes"/>
      <point x="820" y="456" type="line" smooth="yes"/>
      <point x="861" y="456"/>
      <point x="888" y="444"/>
      <point x="888" y="424" type="curve" smooth="yes"/>
      <point x="888" y="396"/>
      <point x="853" y="387"/>
      <point x="818" y="377" type="curve"/>
      <point x="798" y="354" type="line"/>
      <point x="798" y="253"/>
      <point x="910" y="158"/>
      <point x="1031" y="158" type="curve" smooth="yes"/>
      <point x="1094" y="158"/>
      <point x="1136" y="174"/>
      <point x="1168" y="198" type="curve"/>
      <point x="1168" y="0" type="line"/>
      <point x="1273" y="-16" type="line"/>
      <point x="1273" y="597" type="line"/>
      <point x="1395" y="597" type="line"/>
      <point x="1390" y="625"/>
      <point x="1385" y="652"/>
      <point x="1379" y="680" type="curve"/>
      <point x="-11" y="680" type="line"/>
      <point x="-5" y="652"/>
      <point x="-1" y="625"/>
      <point x="4" y="597" type="curve"/>
      <point x="632" y="597" type="line"/>
      <point x="632" y="540" type="line"/>
      <point x="551" y="540" type="line" smooth="yes"/>
      <point x="450" y="540"/>
      <point x="368" y="501"/>
      <point x="368" y="408" type="curve" smooth="yes"/>
      <point x="368" y="398"/>
      <point x="370" y="389"/>
      <point x="373" y="381" type="curve"/>
      <point x="87" y="381" type="line" smooth="yes"/>
      <point x="54" y="381"/>
      <point x="34" y="364"/>
      <point x="34" y="335" type="curve" smooth="yes"/>
      <point x="34" y="276"/>
      <point x="101" y="219"/>
      <point x="159" y="219" type="curve" smooth="yes"/>
      <point x="187" y="219"/>
      <point x="199" y="259"/>
      <point x="199" y="300" type="curve"/>
      <point x="381" y="300" type="line"/>
      <point x="411" y="297" type="line"/>
      <point x="373" y="265"/>
      <point x="351" y="222"/>
      <point x="351" y="171" type="curve" smooth="yes"/>
      <point x="351" y="51"/>
      <point x="445" y="-18"/>
      <point x="601" y="-18" type="curve" smooth="yes"/>
      <point x="657" y="-18"/>
      <point x="705" y="-13"/>
      <point x="756" y="4" type="curve"/>
      <point x="749" y="32"/>
      <point x="740" y="61"/>
      <point x="733" y="90" type="curve"/>
      <point x="691" y="78"/>
      <point x="655" y="73"/>
      <point x="610" y="73" type="curve" smooth="yes"/>
      <point x="514" y="73"/>
      <point x="456" y="107"/>
      <point x="456" y="173" type="curve" smooth="yes"/>
      <point x="456" y="234"/>
      <point x="512" y="276"/>
      <point x="595" y="276" type="curve" smooth="yes"/>
      <point x="642" y="276"/>
      <point x="688" y="266"/>
      <point x="733" y="252" type="curve"/>
    </contour>
    <contour>
      <point x="1168" y="597" type="line"/>
      <point x="1168" y="366" type="line"/>
      <point x="1164" y="291"/>
      <point x="1109" y="245"/>
      <point x="1034" y="245" type="curve"/>
      <point x="962" y="248"/>
      <point x="914" y="290"/>
      <point x="899" y="333" type="curve"/>
      <point x="951" y="361"/>
      <point x="980" y="384"/>
      <point x="980" y="441" type="curve" smooth="yes"/>
      <point x="980" y="487"/>
      <point x="938" y="536"/>
      <point x="853" y="536" type="curve" smooth="yes"/>
      <point x="742" y="536" type="line"/>
      <point x="742" y="597" type="line"/>
    </contour>
  </outline>
</glyph>
<glyph name="dv_NHa" format="1">
  <advance width="826"/>
  <outline>
    <contour>
      <point x="745" y="338" type="line"/>
      <point x="688" y="357"/>
      <point x="633" y="361"/>
      <point x="578" y="361" type="curve" smooth="yes"/>
      <point x="558" y="361"/>
      <point x="543" y="359"/>
      <point x="520" y="359" type="curve" smooth="yes"/>
      <point x="487" y="359"/>
      <point x="458" y="381"/>
      <point x="458" y="407" type="curve" smooth="yes"/>
      <point x="458" y="434"/>
      <point x="476" y="456"/>
      <point x="523" y="456" type="curve" smooth="yes"/>
      <point x="730" y="456" type="line"/>
      <point x="730" y="597" type="line"/>
      <point x="838" y="597" type="line"/>
      <point x="832" y="625"/>
      <point x="827" y="652"/>
      <point x="822" y="680" type="curve"/>
      <point x="-11" y="680" type="line"/>
      <point x="-5" y="652"/>
      <point x="-1" y="625"/>
      <point x="4" y="597" type="curve"/>
      <point x="620" y="597" type="line"/>
      <point x="620" y="540" type="line"/>
      <point x="515" y="540" type="line" smooth="yes"/>
      <point x="429" y="540"/>
      <point x="357" y="490"/>
      <point x="357" y="408" type="curve" smooth="yes"/>
      <point x="357" y="398"/>
      <point x="358" y="389"/>
      <point x="361" y="381" type="curve"/>
      <point x="87" y="381" type="line" smooth="yes"/>
      <point x="54" y="381"/>
      <point x="34" y="364"/>
      <point x="34" y="335" type="curve" smooth="yes"/>
      <point x="34" y="276"/>
      <point x="101" y="219"/>
      <point x="159" y="219" type="curve" smooth="yes"/>
      <point x="187" y="219"/>
      <point x="199" y="259"/>
      <point x="199" y="300" type="curve"/>
      <point x="365" y="300" type="line"/>
      <point x="400" y="297" type="line"/>
      <point x="361" y="265"/>
      <point x="339" y="222"/>
      <point x="339" y="171" type="curve" smooth="yes"/>
      <point x="339" y="53"/>
      <point x="431" y="-18"/>
      <point x="589" y="-18" type="curve" smooth="yes"/>
      <point x="647" y="-18"/>
      <point x="696" y="-13"/>
      <point x="745" y="4" type="curve"/>
      <point x="721" y="90" type="line"/>
      <point x="678" y="77"/>
      <point x="637" y="71"/>
      <point x="591" y="71" type="curve" smooth="yes"/>
      <point x="508" y="71"/>
      <point x="448" y="103"/>
      <point x="448" y="160" type="curve" smooth="yes"/>
      <point x="448" y="219"/>
      <point x="483" y="276"/>
      <point x="583" y="276" type="curve" smooth="yes"/>
      <point x="631" y="276"/>
      <point x="677" y="266"/>
      <point x="721" y="252" type="curve"/>
    </contour>
  </outline>
</glyph>
<glyph name="dv_NyHa" format="1">
  <advance width="998"/>
  <outline>
    <contour>
      <point x="216" y="50" type="curve" smooth="yes"/>
      <point x="328" y="50"/>
      <point x="416" y="106"/>
      <point x="434" y="221" type="curve"/>
      <point x="524" y="221" type="line"/>
      <point x="516" y="206"/>
      <point x="512" y="189"/>
      <point x="512" y="171" type="curve" smooth="yes"/>
      <point x="512" y="51"/>
      <point x="606" y="-18"/>
      <point x="762" y="-18" type="curve" smooth="yes"/>
      <point x="818" y="-18"/>
      <point x="866" y="-13"/>
      <point x="917" y="4" type="curve"/>
      <point x="910" y="32"/>
      <point x="901" y="61"/>
      <point x="894" y="90" type="curve"/>
      <point x="850" y="77"/>
      <point x="809" y="71"/>
      <point x="764" y="71" type="curve" smooth="yes"/>
      <point x="668" y="71"/>
      <point x="621" y="114"/>
      <point x="621" y="170" type="curve" smooth="yes"/>
      <point x="621" y="230"/>
      <point x="664" y="276"/>
      <point x="756" y="276" type="curve" smooth="yes"/>
      <point x="803" y="276"/>
      <point x="849" y="266"/>
      <point x="894" y="252" type="curve"/>
      <point x="917" y="338" type="line"/>
      <point x="860" y="357"/>
      <point x="805" y="361"/>
      <point x="751" y="361" type="curve" smooth="yes"/>
      <point x="730" y="361"/>
      <point x="716" y="359"/>
      <point x="692" y="359" type="curve" smooth="yes"/>
      <point x="657" y="359"/>
      <point x="631" y="379"/>
      <point x="631" y="407" type="curve" smooth="yes"/>
      <point x="631" y="435"/>
      <point x="658" y="456"/>
      <point x="695" y="456" type="curve" smooth="yes"/>
      <point x="903" y="456" type="line"/>
      <point x="903" y="597" type="line"/>
      <point x="1010" y="597" type="line"/>
      <point x="1005" y="625"/>
      <point x="1000" y="652"/>
      <point x="994" y="680" type="curve"/>
      <point x="-11" y="680" type="line"/>
      <point x="-5" y="652"/>
      <point x="-1" y="625"/>
      <point x="4" y="597" type="curve"/>
      <point x="793" y="597" type="line"/>
      <point x="793" y="540" type="line"/>
      <point x="688" y="540" type="line" smooth="yes"/>
      <point x="601" y="540"/>
      <point x="531" y="488"/>
      <point x="531" y="407" type="curve" smooth="yes"/>
      <point x="531" y="372"/>
      <point x="550" y="336"/>
      <point x="587" y="312" type="curve"/>
      <point x="577" y="305" type="line"/>
      <point x="435" y="305" type="line"/>
      <point x="417" y="422"/>
      <point x="329" y="481"/>
      <point x="216" y="481" type="curve" smooth="yes"/>
      <point x="174" y="481"/>
      <point x="130" y="476"/>
      <point x="86" y="460" type="curve"/>
      <point x="108" y="379" type="line"/>
      <point x="144" y="389"/>
      <point x="182" y="395"/>
      <point x="214" y="395" type="curve" smooth="yes"/>
      <point x="288" y="395"/>
      <point x="340" y="346"/>
      <point x="340" y="266" type="curve" smooth="yes"/>
      <point x="340" y="184"/>
      <point x="285" y="136"/>
      <point x="213" y="136" type="curve" smooth="yes"/>
      <point x="144" y="136"/>
      <point x="80" y="165"/>
      <point x="33" y="206" type="curve"/>
      <point x="14" y="113" type="line"/>
      <point x="62" y="80"/>
      <point x="134" y="50"/>
    </contour>
  </outline>
</glyph>
<glyph name="dv_PhHa" format="1">
  <advance width="1234"/>
  <outline>
    <contour>
      <point x="1153" y="338" type="line"/>
      <point x="1096" y="357"/>
      <point x="1041" y="361"/>
      <point x="986" y="361" type="curve" smooth="yes"/>
      <point x="966" y="361"/>
      <point x="951" y="359"/>
      <point x="928" y="359" type="curve" smooth="yes"/>
      <point x="892" y="359"/>
      <point x="866" y="379"/>
      <point x="866" y="407" type="curve" smooth="yes"/>
      <point x="866" y="435"/>
      <point x="894" y="456"/>
      <point x="931" y="456" type="curve" smooth="yes"/>
      <point x="1138" y="456" type="line"/>
      <point x="1138" y="597" type="line"/>
      <point x="1246" y="597" type="line"/>
      <point x="1240" y="625"/>
      <point x="1235" y="652"/>
      <point x="1230" y="680" type="curve"/>
      <point x="-11" y="680" type="line"/>
      <point x="-5" y="652"/>
      <point x="-1" y="625"/>
      <point x="4" y="597" type="curve"/>
      <point x="88" y="597" type="line"/>
      <point x="88" y="380" type="line" smooth="yes"/>
      <point x="88" y="244"/>
      <point x="184" y="164"/>
      <point x="314" y="164" type="curve" smooth="yes"/>
      <point x="364" y="164"/>
      <point x="416" y="181"/>
      <point x="449" y="205" type="curve"/>
      <point x="449" y="0" type="line"/>
      <point x="554" y="-16" type="line"/>
      <point x="554" y="338" type="line"/>
      <point x="575" y="370"/>
      <point x="611" y="417"/>
      <point x="690" y="417" type="curve" smooth="yes"/>
      <point x="767" y="417" type="line"/>
      <point x="767" y="376"/>
      <point x="781" y="336"/>
      <point x="822" y="312" type="curve"/>
      <point x="774" y="277"/>
      <point x="747" y="229"/>
      <point x="747" y="171" type="curve" smooth="yes"/>
      <point x="747" y="52"/>
      <point x="841" y="-18"/>
      <point x="997" y="-18" type="curve" smooth="yes"/>
      <point x="1055" y="-18"/>
      <point x="1104" y="-13"/>
      <point x="1153" y="4" type="curve"/>
      <point x="1129" y="90" type="line"/>
      <point x="1087" y="77"/>
      <point x="1047" y="72"/>
      <point x="1002" y="72" type="curve" smooth="yes"/>
      <point x="910" y="72"/>
      <point x="853" y="110"/>
      <point x="853" y="173" type="curve" smooth="yes"/>
      <point x="853" y="234"/>
      <point x="909" y="276"/>
      <point x="991" y="276" type="curve" smooth="yes"/>
      <point x="1039" y="276"/>
      <point x="1085" y="266"/>
      <point x="1129" y="252" type="curve"/>
    </contour>
    <contour>
      <point x="449" y="371" type="line"/>
      <point x="444" y="297"/>
      <point x="394" y="252"/>
      <point x="319" y="252" type="curve" smooth="yes"/>
      <point x="236" y="252"/>
      <point x="193" y="301"/>
      <point x="193" y="380" type="curve" smooth="yes"/>
      <point x="193" y="597" type="line"/>
      <point x="449" y="597" type="line"/>
    </contour>
    <contour>
      <point x="554" y="597" type="line"/>
      <point x="1028" y="597" type="line"/>
      <point x="1028" y="540" type="line"/>
      <point x="960" y="540" type="line" smooth="yes"/>
      <point x="896" y="540"/>
      <point x="843" y="532"/>
      <point x="805" y="499" type="curve"/>
      <point x="688" y="499" type="line" smooth="yes"/>
      <point x="620" y="499"/>
      <point x="582" y="474"/>
      <point x="554" y="449" type="curve"/>
    </contour>
  </outline>
</glyph>
<glyph name="dv_THa" format="1">
  <advance width="903"/>
  <outline>
    <contour>
      <point x="822" y="338" type="line"/>
      <point x="765" y="357"/>
      <point x="710" y="361"/>
      <point x="655" y="361" type="curve" smooth="yes"/>
      <point x="635" y="361"/>
      <point x="620" y="359"/>
      <point x="597" y="359" type="curve" smooth="yes"/>
      <point x="561" y="359"/>
      <point x="535" y="379"/>
      <point x="535" y="407" type="curve" smooth="yes"/>
      <point x="535" y="435"/>
      <point x="563" y="456"/>
      <point x="600" y="456" type="curve" smooth="yes"/>
      <point x="807" y="456" type="line"/>
      <point x="807" y="597" type="line"/>
      <point x="915" y="597" type="line"/>
      <point x="909" y="625"/>
      <point x="904" y="652"/>
      <point x="899" y="680" type="curve"/>
      <point x="-11" y="680" type="line"/>
      <point x="-5" y="652"/>
      <point x="-1" y="625"/>
      <point x="4" y="597" type="curve"/>
      <point x="697" y="597" type="line"/>
      <point x="697" y="540" type="line"/>
      <point x="592" y="540" type="line" smooth="yes"/>
      <point x="526" y="540"/>
      <point x="470" y="510"/>
      <point x="448" y="460" type="curve"/>
      <point x="241" y="460" type="line" smooth="yes"/>
      <point x="127" y="460"/>
      <point x="62" y="390"/>
      <point x="62" y="295" type="curve" smooth="yes"/>
      <point x="62" y="199"/>
      <point x="148" y="77"/>
      <point x="216" y="-20" type="curve"/>
      <point x="247" y="-10"/>
      <point x="278" y="-1"/>
      <point x="308" y="8" type="curve"/>
      <point x="237" y="119"/>
      <point x="166" y="222"/>
      <point x="166" y="291" type="curve" smooth="yes"/>
      <point x="166" y="343"/>
      <point x="205" y="376"/>
      <point x="280" y="376" type="curve" smooth="yes"/>
      <point x="439" y="376" type="line"/>
      <point x="447" y="351"/>
      <point x="465" y="329"/>
      <point x="491" y="312" type="curve"/>
      <point x="443" y="277"/>
      <point x="416" y="229"/>
      <point x="416" y="171" type="curve" smooth="yes"/>
      <point x="416" y="52"/>
      <point x="510" y="-18"/>
      <point x="666" y="-18" type="curve" smooth="yes"/>
      <point x="724" y="-18"/>
      <point x="773" y="-13"/>
      <point x="822" y="4" type="curve"/>
      <point x="798" y="90" type="line"/>
      <point x="757" y="77"/>
      <point x="718" y="73"/>
      <point x="675" y="73" type="curve" smooth="yes"/>
      <point x="580" y="73"/>
      <point x="522" y="107"/>
      <point x="522" y="173" type="curve" smooth="yes"/>
      <point x="522" y="236"/>
      <point x="581" y="274"/>
      <point x="670" y="274" type="curve" smooth="yes"/>
      <point x="713" y="274"/>
      <point x="757" y="265"/>
      <point x="798" y="252" type="curve"/>
    </contour>
  </outline>
</glyph>
<glyph name="dv_ThHa" format="1">
  <advance width="912"/>
  <outline>
    <contour>
      <point x="831" y="338" type="line"/>
      <point x="774" y="357"/>
      <point x="719" y="361"/>
      <point x="664" y="361" type="curve" smooth="yes"/>
      <point x="644" y="361"/>
      <point x="629" y="359"/>
      <point x="606" y="359" type="curve" smooth="yes"/>
      <point x="564" y="359"/>
      <point x="544" y="381"/>
      <point x="544" y="407" type="curve" smooth="yes"/>
      <point x="544" y="434"/>
      <point x="573" y="456"/>
      <point x="609" y="456" type="curve" smooth="yes"/>
      <point x="816" y="456" type="line"/>
      <point x="816" y="597" type="line"/>
      <point x="924" y="597" type="line"/>
      <point x="918" y="625"/>
      <point x="913" y="652"/>
      <point x="908" y="680" type="curve"/>
      <point x="351" y="680" type="line"/>
      <point x="357" y="652"/>
      <point x="361" y="625"/>
      <point x="367" y="597" type="curve"/>
      <point x="706" y="597" type="line"/>
      <point x="706" y="540" type="line"/>
      <point x="601" y="540" type="line" smooth="yes"/>
      <point x="515" y="540"/>
      <point x="443" y="490"/>
      <point x="443" y="408" type="curve" smooth="yes"/>
      <point x="443" y="370"/>
      <point x="463" y="336"/>
      <point x="500" y="312" type="curve"/>
      <point x="477" y="295"/>
      <point x="459" y="275"/>
      <point x="446" y="253" type="curve"/>
      <point x="425" y="238"/>
      <point x="387" y="226"/>
      <point x="350" y="226" type="curve" smooth="yes"/>
      <point x="265" y="226"/>
      <point x="217" y="286"/>
      <point x="207" y="332" type="curve"/>
      <point x="267" y="365"/>
      <point x="332" y="405"/>
      <point x="332" y="523" type="curve" smooth="yes"/>
      <point x="332" y="622"/>
      <point x="256" y="696"/>
      <point x="174" y="696" type="curve" smooth="yes"/>
      <point x="98" y="696"/>
      <point x="45" y="648"/>
      <point x="45" y="581" type="curve" smooth="yes"/>
      <point x="45" y="519"/>
      <point x="99" y="480"/>
      <point x="158" y="480" type="curve" smooth="yes"/>
      <point x="197" y="480"/>
      <point x="233" y="501"/>
      <point x="244" y="525" type="curve"/>
      <point x="244" y="427"/>
      <point x="168" y="399"/>
      <point x="125" y="386" type="curve"/>
      <point x="105" y="361" type="line"/>
      <point x="105" y="253"/>
      <point x="206" y="139"/>
      <point x="347" y="139" type="curve" smooth="yes"/>
      <point x="377" y="139"/>
      <point x="404" y="143"/>
      <point x="428" y="150" type="curve"/>
      <point x="454" y="45"/>
      <point x="515" y="-18"/>
      <point x="675" y="-18" type="curve" smooth="yes"/>
      <point x="733" y="-18"/>
      <point x="782" y="-13"/>
      <point x="831" y="4" type="curve"/>
      <point x="807" y="90" type="line"/>
      <point x="764" y="77"/>
      <point x="723" y="71"/>
      <point x="677" y="71" type="curve" smooth="yes"/>
      <point x="574" y="71"/>
      <point x="534" y="114"/>
      <point x="534" y="171" type="curve" smooth="yes"/>
      <point x="534" y="230"/>
      <point x="581" y="276"/>
      <point x="669" y="276" type="curve" smooth="yes"/>
      <point x="717" y="276"/>
      <point x="763" y="266"/>
      <point x="807" y="252" type="curve"/>
    </contour>
    <contour>
      <point x="167" y="624" type="curve" smooth="yes"/>
      <point x="187" y="624"/>
      <point x="204" y="610"/>
      <point x="213" y="594" type="curve"/>
      <point x="208" y="569"/>
      <point x="192" y="548"/>
      <point x="162" y="548" type="curve" smooth="yes"/>
      <point x="143" y="548"/>
      <point x="124" y="562"/>
      <point x="124" y="584" type="curve" smooth="yes"/>
      <point x="124" y="610"/>
      <point x="145" y="624"/>
    </contour>
  </outline>
</glyph>
<glyph name="dv_VHa" format="1">
  <advance width="1032"/>
  <outline>
    <contour>
      <point x="951" y="338" type="line"/>
      <point x="894" y="357"/>
      <point x="839" y="361"/>
      <point x="785" y="361" type="curve" smooth="yes"/>
      <point x="764" y="361"/>
      <point x="750" y="359"/>
      <point x="726" y="359" type="curve" smooth="yes"/>
      <point x="691" y="359"/>
      <point x="665" y="379"/>
      <point x="665" y="407" type="curve" smooth="yes"/>
      <point x="665" y="435"/>
      <point x="692" y="456"/>
      <point x="729" y="456" type="curve" smooth="yes"/>
      <point x="937" y="456" type="line"/>
      <point x="937" y="597" type="line"/>
      <point x="1044" y="597" type="line"/>
      <point x="1039" y="625"/>
      <point x="1034" y="652"/>
      <point x="1028" y="680" type="curve"/>
      <point x="-11" y="680" type="line"/>
      <point x="-5" y="652"/>
      <point x="-1" y="625"/>
      <point x="4" y="597" type="curve"/>
      <point x="827" y="597" type="line"/>
      <point x="827" y="540" type="line"/>
      <point x="722" y="540" type="line" smooth="yes"/>
      <point x="636" y="540"/>
      <point x="563" y="490"/>
      <point x="563" y="408" type="curve" smooth="yes"/>
      <point x="563" y="370"/>
      <point x="584" y="336"/>
      <point x="621" y="312" type="curve"/>
      <point x="573" y="277"/>
      <point x="546" y="229"/>
      <point x="546" y="171" type="curve" smooth="yes"/>
      <point x="546" y="53"/>
      <point x="639" y="-18"/>
      <point x="796" y="-18" type="curve" smooth="yes"/>
      <point x="852" y="-18"/>
      <point x="900" y="-13"/>
      <point x="951" y="4" type="curve"/>
      <point x="944" y="32"/>
      <point x="935" y="61"/>
      <point x="928" y="90" type="curve"/>
      <point x="886" y="78"/>
      <point x="850" y="73"/>
      <point x="805" y="73" type="curve" smooth="yes"/>
      <point x="709" y="73"/>
      <point x="651" y="107"/>
      <point x="651" y="173" type="curve" smooth="yes"/>
      <point x="651" y="236"/>
      <point x="711" y="274"/>
      <point x="799" y="274" type="curve" smooth="yes"/>
      <point x="842" y="274"/>
      <point x="886" y="265"/>
      <point x="928" y="252" type="curve"/>
    </contour>
    <contour>
      <point x="47" y="291" type="curve" smooth="yes"/>
      <point x="47" y="171"/>
      <point x="143" y="80"/>
      <point x="274" y="80" type="curve"/>
      <point x="408" y="83"/>
      <point x="496" y="180"/>
      <point x="496" y="292" type="curve" smooth="yes"/>
      <point x="496" y="410"/>
      <point x="402" y="502"/>
      <point x="273" y="504" type="curve"/>
      <point x="137" y="503"/>
      <point x="47" y="408"/>
    </contour>
    <contour>
      <point x="272" y="417" type="curve" smooth="yes"/>
      <point x="340" y="417"/>
      <point x="392" y="366"/>
      <point x="392" y="292" type="curve" smooth="yes"/>
      <point x="392" y="224"/>
      <point x="344" y="167"/>
      <point x="272" y="167" type="curve" smooth="yes"/>
      <point x="204" y="167"/>
      <point x="152" y="218"/>
      <point x="152" y="292" type="curve" smooth="yes"/>
      <point x="152" y="360"/>
      <point x="200" y="417"/>
    </contour>
  </outline>
</glyph>
